<?xml version="1.0" standalone="no"?>
<!DOCTYPE svg PUBLIC "-//W3C//DTD SVG 20010904//EN"
 "http://www.w3.org/TR/2001/REC-SVG-20010904/DTD/svg10.dtd">
<svg version="1.0" xmlns="http://www.w3.org/2000/svg"
 width="1331.000000pt" height="1331.000000pt" viewBox="0 0 1331.000000 1331.000000"
 preserveAspectRatio="xMidYMid meet">
<metadata>
Created by potrace 1.14, written by Peter Selinger 2001-2017
</metadata>
<g transform="translate(0.000000,1331.000000) scale(0.100000,-0.100000)"
fill="#000000" stroke="none">
<path d="M3285 11802 c-44 -24 -161 -106 -175 -121 -3 -3 -32 -28 -65 -56
-141 -117 -272 -242 -590 -561 -179 -179 -315 -306 -376 -351 -162 -121 -644
-431 -799 -514 -25 -13 -48 -28 -52 -34 -4 -5 -8 -7 -8 -2 0 4 -93 -40 -208
-97 -290 -146 -383 -184 -498 -202 -27 -5 -52 -9 -56 -10 -5 -1 -30 -2 -56 -3
-49 -1 -49 -1 -47 -34 8 -109 39 -214 102 -342 43 -88 163 -276 220 -344 142
-173 180 -215 294 -330 91 -91 183 -176 254 -236 32 -27 75 -64 94 -81 47 -41
289 -222 316 -236 11 -6 22 -14 25 -18 13 -17 277 -172 370 -217 124 -61 269
-111 339 -120 l51 -6 1 49 c1 27 3 63 5 79 9 87 15 144 19 175 3 31 35 245 51
340 3 19 10 53 15 75 11 47 17 76 23 110 3 13 7 28 9 32 3 5 8 24 11 43 9 52
13 72 46 225 17 77 33 151 35 165 3 14 18 88 35 165 56 259 92 430 97 461 2
17 10 52 17 79 l12 49 66 2 c76 2 102 14 127 54 l17 29 30 -25 c55 -47 157
-139 194 -174 21 -19 86 -80 145 -135 451 -417 1496 -1450 2422 -2393 142
-145 259 -267 261 -271 1 -4 -43 -48 -100 -97 -127 -111 -124 -109 -216 -191
-41 -37 -83 -75 -92 -83 -9 -8 -63 -58 -120 -110 -56 -52 -114 -106 -129 -119
-34 -31 -161 -151 -391 -370 -350 -333 -1398 -1388 -1650 -1661 -18 -19 -89
-94 -157 -167 -69 -73 -132 -141 -141 -151 -10 -11 -60 -66 -112 -122 -52 -56
-102 -110 -110 -120 -8 -9 -50 -55 -92 -101 -42 -46 -85 -94 -95 -105 -32 -37
-138 -157 -148 -168 -5 -6 -39 -45 -75 -86 -35 -41 -77 -88 -91 -105 -36 -40
-155 -181 -199 -235 -19 -24 -40 -48 -45 -54 -8 -9 -100 -122 -163 -201 -283
-356 -478 -661 -517 -811 -21 -82 -13 -122 32 -162 32 -28 241 -139 277 -147
6 -1 25 -7 41 -14 123 -50 463 -151 555 -165 19 -3 44 -8 56 -10 104 -21 230
-24 273 -6 34 14 42 36 31 87 -5 21 -12 65 -15 98 -4 33 -8 71 -10 85 -31 218
-23 343 27 450 12 25 49 88 82 140 111 177 271 380 476 606 20 21 69 77 110
124 41 47 79 90 85 96 5 6 42 46 80 89 116 129 122 135 268 289 249 261 863
870 1153 1142 337 316 524 499 624 610 66 73 209 229 241 265 13 14 67 72 119
129 52 57 111 120 130 141 175 185 328 346 450 471 l145 150 180 -184 c99
-101 230 -237 290 -302 61 -65 126 -135 145 -155 19 -20 80 -86 135 -146 55
-60 109 -119 120 -131 11 -11 42 -45 69 -75 165 -183 217 -239 266 -289 47
-46 282 -271 393 -373 375 -350 1197 -1168 1417 -1413 104 -116 146 -163 179
-199 21 -22 116 -130 213 -240 341 -389 519 -645 561 -808 15 -57 16 -209 3
-312 -3 -22 -8 -65 -11 -95 -4 -30 -10 -73 -14 -95 -14 -78 -9 -108 22 -123
69 -34 299 -5 552 68 39 11 77 22 85 24 23 6 239 82 300 106 75 30 223 105
250 127 60 48 62 54 57 124 -7 106 -95 275 -280 539 -44 63 -83 117 -86 120
-3 3 -33 41 -66 85 -33 44 -62 82 -65 85 -5 5 -63 78 -130 163 -28 37 -169
206 -185 223 -5 6 -29 33 -52 61 -24 27 -53 61 -65 76 -13 14 -32 36 -43 49
-22 27 -147 170 -155 178 -3 3 -59 66 -125 140 -66 74 -127 142 -135 150 -8 9
-51 56 -95 104 -44 49 -96 105 -115 126 -19 20 -82 88 -140 150 -105 114 -225
241 -310 330 -728 759 -1395 1418 -1995 1975 -65 61 -126 117 -135 125 -43 41
-304 274 -371 332 l-77 66 367 373 c812 826 1868 1871 2191 2169 19 18 67 62
105 99 69 65 177 162 304 275 l64 56 19 -30 c23 -39 71 -59 131 -56 26 1 51 0
55 -3 5 -3 19 -55 31 -116 12 -60 23 -119 25 -130 3 -11 17 -76 31 -145 15
-69 29 -134 31 -145 5 -26 47 -224 80 -372 14 -65 32 -153 40 -196 7 -43 20
-104 28 -135 19 -73 60 -301 71 -392 2 -23 9 -77 20 -160 3 -19 8 -66 11 -105
4 -38 8 -79 9 -90 1 -11 3 -28 4 -39 2 -26 50 -20 211 30 85 25 409 193 418
216 2 4 8 8 13 8 20 0 423 287 449 319 3 4 21 19 40 35 170 138 457 425 561
561 13 17 26 32 29 35 3 3 26 32 51 65 167 222 268 439 285 611 l6 61 -80 7
c-141 11 -276 58 -502 171 -69 34 -159 80 -200 100 -41 21 -82 42 -90 46 -8 5
-28 15 -45 24 -16 8 -51 27 -76 42 -26 16 -69 41 -95 57 -27 16 -71 43 -99 61
-27 17 -81 51 -120 76 -98 62 -339 221 -345 229 -3 3 -18 14 -35 24 -16 11
-34 23 -40 28 -5 4 -36 29 -68 54 -33 26 -96 85 -140 132 -126 132 -402 406
-523 519 -114 106 -119 111 -204 183 -29 25 -60 52 -69 60 -9 8 -32 26 -51 40
-39 27 -54 39 -75 58 -23 20 -126 72 -144 72 -9 0 -32 -10 -51 -21 -38 -23
-334 -317 -443 -440 -110 -124 -136 -155 -209 -246 -58 -73 -68 -87 -68 -98 0
-13 136 -105 156 -105 24 0 16 -28 -36 -129 -51 -100 -102 -161 -155 -188 -16
-8 -40 -24 -52 -36 -21 -19 -57 -109 -67 -170 -3 -15 -8 -37 -12 -50 -12 -39
-124 -220 -211 -342 -72 -100 -284 -375 -318 -411 -5 -6 -28 -33 -50 -60 -49
-59 -118 -139 -222 -260 -31 -36 -137 -156 -158 -180 -11 -12 -51 -57 -90 -99
-38 -43 -81 -90 -95 -105 -14 -15 -68 -73 -120 -130 -106 -115 -95 -103 -280
-300 -210 -222 -626 -655 -729 -758 l-54 -53 -115 118 c-294 303 -617 639
-738 769 -16 18 -81 87 -144 155 -138 147 -155 166 -200 216 -19 21 -75 83
-125 138 -49 55 -92 102 -95 105 -3 3 -37 41 -75 85 -39 44 -74 85 -80 91 -5
6 -30 35 -55 64 -25 30 -63 75 -85 100 -243 280 -510 640 -608 820 -19 36 -43
99 -52 140 -21 99 -50 150 -98 174 -64 31 -121 99 -173 203 -26 54 -49 101
-51 105 -2 5 9 13 24 20 35 15 140 84 148 98 10 16 -147 211 -320 400 -115
125 -364 370 -397 390 -43 26 -63 25 -123 -8z"/>
</g>
</svg>
