<svg width="20" height="22" viewBox="0 0 20 22" fill="none" xmlns="http://www.w3.org/2000/svg">
<path fill-rule="evenodd" clip-rule="evenodd" d="M13.535 10.2377C12.9841 10.8878 12.4283 11.5601 11.874 12.2806L10.7407 13.8344C9.97496 14.947 9.22023 16.1875 8.4934 17.6261C10.1387 17.6865 8.73313 22.6828 6.82264 21.4646C6.75686 21.6406 6.69146 21.819 6.62649 22L4.95341 21.3303C4.99208 21.2226 5.0309 21.1157 5.06987 21.0096C4.46039 21.0067 3.81266 21.0972 3.19329 21.1837C1.80685 21.3774 0.562527 21.5512 0.207482 20.613C-0.472994 18.8149 0.588692 15.3013 2.39427 14.5597C3.33448 14.1736 4.34739 15.046 5.40623 15.9581C5.85154 16.3417 6.30498 16.7322 6.76454 17.0391C7.6801 15.1856 8.63976 13.64 9.60736 12.2806L10.7407 10.768C11.2257 10.1505 11.7091 9.56773 12.1865 9.00438C12.4704 8.6694 12.7505 8.34284 13.0264 8.02127C15.1339 5.56453 16.9915 3.39908 18.3504 -1.44214e-07L20 0.731598C18.5219 4.4289 16.4675 6.82004 14.3641 9.26821C14.0882 9.58929 13.8113 9.91158 13.535 10.2377Z" fill="white"/>
</svg>
