<svg width="375" height="334" viewBox="0 0 375 334" fill="none" xmlns="http://www.w3.org/2000/svg">
<g clip-path="url(#clip0)">
<g clip-path="url(#clip1)">
<path opacity="0.559319" d="M148.469 234.39L181.404 214.658" stroke="black" stroke-linecap="round" stroke-linejoin="round"/>
<path d="M150.29 239.359C148.343 234.986 147.137 234.401 140.068 233.758C135.92 233.345 130.377 235.088 118.779 238.274C118.725 237.363 132.826 233.329 136.478 231.966C145.213 228.768 151.142 224.216 156.286 220.611C164.539 214.827 170.771 211.479 183.316 220.061C189.342 216.583 189.62 216.385 190.19 216.011C193.116 214.093 183.289 206.318 178.68 207.171C178.83 206.614 178.83 206.614 178.979 206.056C177.864 205.758 177.864 205.758 176.75 205.458C176.899 204.901 176.899 204.901 177.049 204.344C176.052 204.898 175.139 205.715 174.098 206.178C170.326 207.858 165.871 209.974 160.935 212.422C122.391 231.539 54.5392 270.883 53.6899 280.347C57.0797 281.256 62.7205 281.299 70.3687 277.372C80.6526 272.093 93.7295 261.897 101.902 258.44C106.87 256.338 111.027 256.095 111.562 256.13C110.924 256.397 100.991 259.131 94.293 262.853C84.5346 268.276 71.458 275.244 70.8741 280.682C69.271 286.866 73.0365 290.065 73.995 292.994C75.5467 295.298 75.8918 292.113 76.7231 291.513C77.567 287.61 77.3011 285.064 79.8713 281.629C85.4178 275.832 92.2879 271.895 99.2467 267.446C113.308 258.456 130.534 249.506 150.29 239.359Z" fill="#C94841" stroke="#5C0601" stroke-linecap="round" stroke-linejoin="round"/>
<path d="M76.3725 294.396C76.4856 293.172 76.7122 291.766 76.7675 291.418C73.0226 295.64 70.2784 281.953 75.0399 277.35C78.4102 274.092 82.5508 271.074 87.0318 268.319C95.1031 263.357 104.278 259.249 112.045 256.133C107.311 256.354 103.581 257.979 99.6768 256.459C100.319 257.217 101.14 258.123 100.673 258.864C99.8536 258.826 97.752 256.879 96.5496 259.22C90.8546 262.204 78.646 271.113 69.0501 276.106C66.6295 277.365 64.9911 277.899 63.3593 278.5C61.5054 279.182 58.6035 280.31 55.2373 280.027C46.3885 279.282 75.8959 299.544 76.3725 294.396Z" fill="#3B3B3B" stroke="#151414" stroke-linecap="round" stroke-linejoin="round"/>
<path d="M321.709 190.576C315.876 189.013 311.337 183.55 306.869 179.587C301.336 182.78 278.521 195.278 273.272 198.277C273.159 203.878 272.193 210.897 270.88 216.985C282.421 219.402 318.087 204.085 321.709 190.576Z" fill="#9B9A98" stroke="#4F4F4F" stroke-linecap="round" stroke-linejoin="round"/>
<path d="M273.4 198.112C273.4 198.112 308.113 181.477 306.577 179.364C303.893 176.91 291.305 162.818 290.563 160.218C289.366 157.912 277.31 134.948 274.308 135.24C273.317 134.84 259.199 143.102 255.232 146.471C255.941 147.687 257.599 149.474 258.157 149.624C251.119 158.558 252.214 150.897 248.243 158.846C235.042 173.324 174.049 205.327 175.164 205.626C175.015 206.183 179.37 204.653 178.704 207.412C181.899 207.309 190.2 216.1 190.2 216.1C190.2 216.1 249.773 182.071 271.526 172.131C271.322 175.22 275.297 174.536 275.073 175.372C274.355 183.927 273.4 198.112 273.4 198.112Z" fill="#3B3B3B" stroke="#151414" stroke-linecap="round" stroke-linejoin="round"/>
<path d="M271.558 172.159L258.105 149.603L271.558 172.159Z" fill="#3B3B3B"/>
<path d="M271.558 172.159L258.105 149.603" stroke="#151414" stroke-linecap="round" stroke-linejoin="round"/>
<path d="M150.073 239.474C163.297 231.324 171.931 226.06 183.325 219.826C179.073 207.787 172.388 210.307 165.705 213.095C149.558 219.533 117.914 237.559 118.581 238.121C119.249 238.683 147.123 228.563 150.073 239.474Z" fill="#3B3B3B" stroke="#151414" stroke-linecap="round" stroke-linejoin="round"/>
<path d="M135.856 239.907C128.965 238.059 109.815 243.463 107.819 250.907C112.617 252.193 122.158 250.216 128.806 246.706C132.419 244.799 135.177 242.44 135.856 239.907Z" fill="#3B3B3B" stroke="#151414" stroke-linecap="round" stroke-linejoin="round"/>
<path d="M274.693 139.417L274.924 139.802L272.109 141.494L271.878 141.109L274.693 139.417Z" fill="#FCFBF5"/>
<path d="M274.648 141.07L274.845 141.398L274.554 141.572C274.733 141.598 274.88 141.648 274.998 141.726C275.116 141.803 275.215 141.908 275.295 142.041C275.47 142.332 275.486 142.59 275.345 142.814C275.267 142.937 275.125 143.061 274.918 143.185L273.601 143.976L273.391 143.626L274.684 142.848C274.81 142.773 274.899 142.694 274.954 142.611C275.044 142.472 275.042 142.323 274.945 142.162C274.896 142.08 274.847 142.018 274.799 141.976C274.714 141.898 274.608 141.849 274.481 141.828C274.378 141.811 274.286 141.816 274.204 141.842C274.121 141.868 274.012 141.921 273.878 142.002L272.803 142.648L272.596 142.303L274.648 141.07Z" fill="#FCFBF5"/>
<path d="M276.717 143.214L276.927 143.562L276.354 143.907L276.551 144.235L276.269 144.404L276.072 144.076L274.733 144.881C274.661 144.924 274.628 144.978 274.632 145.041C274.634 145.076 274.654 145.125 274.692 145.187C274.702 145.204 274.713 145.222 274.725 145.24C274.737 145.259 274.752 145.281 274.77 145.305L274.498 145.468C274.463 145.435 274.43 145.399 274.399 145.36C274.368 145.32 274.338 145.275 274.308 145.225C274.211 145.064 274.187 144.931 274.234 144.823C274.282 144.716 274.372 144.623 274.504 144.544L275.862 143.727L275.695 143.45L275.977 143.28L276.144 143.558L276.717 143.214Z" fill="#FCFBF5"/>
<path d="M277.46 145.643C277.547 145.789 277.598 145.951 277.612 146.128C277.626 146.306 277.6 146.463 277.534 146.6C277.472 146.731 277.379 146.85 277.255 146.956C277.173 147.033 277.028 147.134 276.821 147.259L275.917 145.754C275.713 145.886 275.575 146.035 275.504 146.203C275.434 146.37 275.457 146.551 275.573 146.744C275.681 146.924 275.827 147.032 276.01 147.068C276.116 147.087 276.222 147.083 276.328 147.054L276.532 147.393C276.451 147.429 276.349 147.45 276.226 147.456C276.103 147.461 275.993 147.45 275.897 147.422C275.732 147.379 275.585 147.291 275.456 147.158C275.386 147.087 275.319 146.999 275.256 146.895C275.103 146.639 275.066 146.367 275.145 146.077C275.224 145.788 275.431 145.543 275.766 145.342C276.095 145.143 276.417 145.072 276.73 145.127C277.043 145.183 277.286 145.355 277.46 145.643ZM276.882 146.739C277.023 146.635 277.123 146.531 277.182 146.426C277.291 146.232 277.279 146.024 277.146 145.803C277.051 145.645 276.914 145.546 276.735 145.507C276.556 145.469 276.377 145.499 276.197 145.599L276.882 146.739Z" fill="#FCFBF5"/>
<path d="M278.36 147.245L278.557 147.573L278.203 147.786C278.288 147.771 278.411 147.787 278.573 147.832C278.735 147.877 278.857 147.968 278.939 148.105C278.943 148.111 278.949 148.123 278.957 148.139C278.965 148.155 278.978 148.182 278.997 148.222L278.633 148.441C278.624 148.418 278.615 148.398 278.606 148.38C278.597 148.362 278.586 148.342 278.574 148.322C278.47 148.148 278.334 148.048 278.166 148.022C277.998 147.996 277.841 148.027 277.696 148.114L276.515 148.824L276.308 148.479L278.36 147.245Z" fill="#FCFBF5"/>
<path d="M279.897 148.504L280.106 148.853L279.533 149.197L279.73 149.524L279.448 149.694L279.251 149.366L277.912 150.171C277.841 150.214 277.807 150.267 277.812 150.331C277.814 150.366 277.834 150.415 277.872 150.477C277.881 150.494 277.893 150.512 277.905 150.53C277.917 150.549 277.932 150.571 277.95 150.595L277.678 150.758C277.643 150.725 277.61 150.689 277.579 150.649C277.548 150.61 277.517 150.565 277.487 150.515C277.391 150.354 277.366 150.22 277.414 150.113C277.462 150.006 277.552 149.913 277.683 149.834L279.042 149.017L278.875 148.74L279.157 148.57L279.323 148.848L279.897 148.504Z" fill="#FCFBF5"/>
<path d="M278.739 152.02C278.876 152.249 279.057 152.354 279.282 152.335C279.506 152.316 279.724 152.243 279.936 152.115C280.128 152 280.265 151.876 280.348 151.742C280.479 151.532 280.473 151.307 280.33 151.07C280.203 150.859 280.031 150.754 279.812 150.755C279.593 150.755 279.371 150.825 279.143 150.961C278.925 151.093 278.771 151.25 278.683 151.433C278.595 151.616 278.614 151.812 278.739 152.02ZM280.637 150.898C280.795 151.163 280.842 151.439 280.775 151.728C280.709 152.017 280.504 152.264 280.162 152.47C279.831 152.669 279.509 152.753 279.197 152.721C278.884 152.69 278.626 152.505 278.422 152.166C278.253 151.884 278.214 151.603 278.305 151.322C278.396 151.041 278.602 150.804 278.924 150.61C279.269 150.403 279.597 150.325 279.906 150.377C280.216 150.429 280.459 150.603 280.637 150.898Z" fill="#FCFBF5"/>
<path d="M280.193 154.44C280.331 154.669 280.511 154.773 280.736 154.754C280.96 154.735 281.178 154.662 281.39 154.534C281.582 154.419 281.719 154.295 281.802 154.162C281.933 153.951 281.927 153.727 281.784 153.489C281.658 153.278 281.485 153.173 281.266 153.174C281.048 153.175 280.825 153.244 280.597 153.381C280.379 153.512 280.226 153.669 280.138 153.853C280.05 154.036 280.068 154.231 280.193 154.44ZM282.091 153.318C282.25 153.582 282.296 153.858 282.23 154.147C282.163 154.436 281.959 154.683 281.616 154.889C281.285 155.088 280.964 155.172 280.651 155.14C280.338 155.109 280.08 154.924 279.877 154.586C279.707 154.303 279.668 154.022 279.759 153.741C279.85 153.46 280.057 153.223 280.378 153.029C280.724 152.822 281.051 152.744 281.36 152.796C281.67 152.849 281.913 153.022 282.091 153.318Z" fill="#FCFBF5"/>
<path d="M283.756 154.496L283.964 154.841L281.149 156.533L280.941 156.188L283.756 154.496Z" fill="#FCFBF5"/>
<path d="M268.649 170.816L246.383 182.033L268.649 170.816Z" fill="#3B3B3B"/>
<path d="M268.649 170.816L246.383 182.033" stroke="#151414" stroke-linecap="round" stroke-linejoin="round"/>
</g>
<g clip-path="url(#clip2)">
<path opacity="0.559319" d="M226.919 233.783L193.984 214.051" stroke="black" stroke-linecap="round" stroke-linejoin="round"/>
<path d="M225.098 238.753C227.045 234.379 228.251 233.794 235.32 233.152C239.468 232.738 245.011 234.481 256.609 237.667C256.663 236.756 242.562 232.723 238.91 231.36C230.175 228.161 224.246 223.609 219.102 220.004C210.849 214.22 204.617 210.873 192.072 219.454C186.046 215.977 185.768 215.778 185.198 215.404C182.272 213.486 192.099 205.712 196.708 206.564C196.558 206.007 196.558 206.007 196.409 205.449C197.524 205.151 197.524 205.151 198.638 204.852C198.489 204.295 198.489 204.295 198.339 203.737C199.336 204.291 200.249 205.109 201.29 205.572C205.062 207.251 209.517 209.367 214.453 211.815C252.997 230.932 320.849 270.277 321.698 279.741C318.308 280.649 312.667 280.692 305.019 276.766C294.735 271.486 281.659 261.29 273.486 257.833C268.518 255.731 264.361 255.489 263.826 255.523C264.464 255.791 274.397 258.525 281.095 262.247C290.853 267.67 303.93 274.637 304.514 280.076C306.117 286.259 302.351 289.459 301.393 292.387C299.841 294.692 299.496 291.507 298.665 290.906C297.821 287.003 298.087 284.457 295.517 281.022C289.97 275.226 283.1 271.288 276.141 266.839C262.08 257.849 244.854 248.899 225.098 238.753Z" fill="#C94841" stroke="#5C0601" stroke-linecap="round" stroke-linejoin="round"/>
<path d="M299.016 293.789C298.903 292.565 298.676 291.159 298.621 290.811C302.365 295.033 305.11 281.346 300.348 276.743C296.978 273.485 292.837 270.467 288.356 267.712C280.285 262.75 271.11 258.642 263.343 255.526C268.077 255.747 271.807 257.372 275.711 255.852C275.069 256.61 274.248 257.516 274.715 258.257C275.534 258.22 277.636 256.273 278.838 258.613C284.533 261.597 296.742 270.506 306.338 275.499C308.759 276.759 310.397 277.292 312.029 277.893C313.883 278.575 316.785 279.703 320.151 279.42C329 278.675 299.492 298.937 299.016 293.789Z" fill="#3B3B3B" stroke="#151414" stroke-linecap="round" stroke-linejoin="round"/>
<path d="M53.6792 189.97C59.5117 188.406 64.0508 182.943 68.5187 178.98C74.052 182.174 96.8666 194.671 102.116 197.67C102.229 203.271 103.195 210.29 104.508 216.378C92.9672 218.795 57.3009 203.479 53.6792 189.97Z" fill="#9B9A98" stroke="#4F4F4F" stroke-linecap="round" stroke-linejoin="round"/>
<path d="M102.035 197.478C102.035 197.478 67.321 180.842 68.857 178.729C71.5413 176.276 84.1297 162.183 84.8716 159.584C86.0682 157.278 98.1243 134.313 101.126 134.605C102.117 134.206 116.235 142.467 120.203 145.836C119.494 147.053 117.835 148.84 117.278 148.989C124.316 157.924 123.221 150.262 127.192 158.211C140.392 172.69 201.385 204.693 200.271 204.991C200.42 205.549 196.065 204.019 196.731 206.778C193.535 206.674 185.235 215.466 185.235 215.466C185.235 215.466 125.661 181.436 103.909 171.497C104.112 174.586 100.138 173.901 100.362 174.737C101.08 183.292 102.035 197.478 102.035 197.478Z" fill="#3B3B3B" stroke="#151414" stroke-linecap="round" stroke-linejoin="round"/>
<path d="M103.946 171.451L117.289 148.988L103.946 171.451Z" fill="#3B3B3B"/>
<path d="M103.946 171.451L117.289 148.988" stroke="#151414" stroke-linecap="round" stroke-linejoin="round"/>
<path d="M225.315 238.867C212.091 230.717 203.457 225.453 192.063 219.22C196.315 207.18 203 209.701 209.683 212.488C225.831 218.927 257.474 236.952 256.807 237.514C256.14 238.076 228.265 227.956 225.315 238.867Z" fill="#3B3B3B" stroke="#151414" stroke-linecap="round" stroke-linejoin="round"/>
<path d="M239.532 239.3C246.423 237.452 265.573 242.856 267.569 250.3C262.772 251.586 253.23 249.609 246.582 246.099C242.969 244.192 240.211 241.833 239.532 239.3Z" fill="#3B3B3B" stroke="#151414" stroke-linecap="round" stroke-linejoin="round"/>
<path d="M91.4704 154.276L91.6992 153.889L94.5257 155.562L94.2969 155.949L91.4704 154.276Z" fill="#FCFBF5"/>
<path d="M92.9463 153.529L93.1411 153.2L93.4334 153.373C93.3706 153.204 93.345 153.05 93.3571 152.91C93.3689 152.77 93.4145 152.633 93.4935 152.499C93.6666 152.207 93.8853 152.07 94.15 152.088C94.295 152.098 94.4715 152.164 94.6792 152.287L96.001 153.069L95.7928 153.421L94.4939 152.653C94.3683 152.578 94.2558 152.537 94.1571 152.528C93.9921 152.514 93.862 152.588 93.7663 152.749C93.7176 152.832 93.6864 152.904 93.6717 152.966C93.6438 153.078 93.651 153.194 93.6931 153.317C93.7268 153.415 93.7751 153.493 93.8372 153.554C93.8994 153.614 93.9978 153.684 94.1324 153.764L95.2118 154.403L95.0068 154.749L92.9463 153.529Z" fill="#FCFBF5"/>
<path d="M93.8497 150.691L94.057 150.34L94.6324 150.681L94.8272 150.352L95.1098 150.519L94.915 150.848L96.2601 151.644C96.3318 151.687 96.3945 151.691 96.4476 151.657C96.4775 151.638 96.5112 151.597 96.5485 151.534C96.5584 151.518 96.5685 151.5 96.5793 151.48C96.59 151.461 96.6018 151.437 96.6144 151.41L96.8876 151.572C96.8756 151.618 96.8595 151.664 96.8393 151.71C96.8188 151.757 96.794 151.804 96.7642 151.855C96.6686 152.016 96.5626 152.101 96.4455 152.11C96.3287 152.119 96.2042 152.084 96.0719 152.006L94.7077 151.199L94.5427 151.477L94.2598 151.31L94.4251 151.031L93.8497 150.691Z" fill="#FCFBF5"/>
<path d="M95.6343 148.882C95.7209 148.736 95.8391 148.615 95.9889 148.518C96.1387 148.422 96.2894 148.37 96.4411 148.362C96.5859 148.355 96.7344 148.38 96.8867 148.439C96.9938 148.474 97.1511 148.554 97.3591 148.677L96.4649 150.187C96.6779 150.305 96.8747 150.355 97.0558 150.337C97.2369 150.319 97.3847 150.214 97.4993 150.02C97.6063 149.839 97.632 149.66 97.5767 149.481C97.5437 149.379 97.4895 149.287 97.4136 149.208L97.6151 148.868C97.6854 148.921 97.7522 149.001 97.8152 149.107C97.8782 149.212 97.9206 149.314 97.9423 149.412C97.9826 149.578 97.975 149.749 97.9191 149.925C97.8902 150.021 97.8445 150.122 97.7824 150.226C97.6305 150.483 97.4086 150.645 97.1164 150.713C96.8242 150.781 96.5102 150.715 96.174 150.517C95.843 150.321 95.6276 150.072 95.5273 149.77C95.4271 149.468 95.4629 149.172 95.6343 148.882ZM96.8731 148.87C96.7148 148.795 96.5754 148.757 96.4553 148.755C96.2324 148.751 96.0552 148.86 95.9237 149.083C95.8298 149.241 95.8083 149.409 95.8591 149.585C95.9102 149.76 96.0224 149.904 96.1956 150.015L96.8731 148.87Z" fill="#FCFBF5"/>
<path d="M96.6161 147.329L96.8108 147L97.1667 147.211C97.1134 147.143 97.0681 147.027 97.031 146.863C96.994 146.699 97.016 146.548 97.097 146.411C97.1008 146.405 97.1082 146.394 97.1185 146.379C97.1288 146.365 97.1469 146.34 97.1729 146.305L97.5385 146.521C97.5224 146.54 97.5087 146.557 97.4972 146.574C97.4857 146.59 97.4737 146.609 97.4614 146.63C97.3582 146.804 97.3351 146.971 97.3918 147.131C97.4488 147.291 97.5503 147.414 97.6965 147.501L98.8817 148.202L98.6768 148.549L96.6161 147.329Z" fill="#FCFBF5"/>
<path d="M96.9933 145.379L97.2006 145.029L97.7758 145.37L97.9706 145.041L98.2535 145.208L98.0587 145.537L99.4035 146.333C99.4755 146.375 99.5379 146.38 99.5913 146.345C99.6212 146.327 99.6549 146.286 99.6922 146.223C99.7018 146.207 99.7123 146.188 99.723 146.169C99.7337 146.149 99.7455 146.126 99.7581 146.098L100.031 146.26C100.019 146.307 100.003 146.353 99.9827 146.399C99.9625 146.445 99.9374 146.493 99.908 146.543C99.8123 146.705 99.7059 146.79 99.5892 146.799C99.4721 146.808 99.3477 146.773 99.2155 146.695L97.8514 145.887L97.6864 146.166L97.4035 145.999L97.5685 145.72L96.9933 145.379Z" fill="#FCFBF5"/>
<path d="M100.638 144.727C100.774 144.497 100.78 144.288 100.657 144.1C100.533 143.912 100.365 143.754 100.152 143.629C99.9599 143.514 99.7852 143.453 99.628 143.443C99.3807 143.428 99.186 143.54 99.0449 143.779C98.9195 143.99 98.9093 144.192 99.014 144.384C99.1186 144.576 99.2854 144.739 99.5137 144.874C99.733 145.004 99.9441 145.064 100.147 145.055C100.35 145.045 100.514 144.935 100.638 144.727ZM98.7485 143.59C98.9057 143.325 99.1271 143.153 99.4128 143.074C99.6983 142.995 100.013 143.058 100.357 143.261C100.689 143.457 100.916 143.701 101.037 143.991C101.158 144.281 101.118 144.596 100.916 144.936C100.749 145.219 100.52 145.387 100.229 145.441C99.9386 145.494 99.632 145.425 99.3087 145.234C98.9622 145.029 98.7386 144.777 98.6373 144.48C98.536 144.183 98.5733 143.886 98.7485 143.59Z" fill="#FCFBF5"/>
<path d="M102.076 142.297C102.211 142.068 102.218 141.859 102.094 141.671C101.971 141.483 101.803 141.325 101.59 141.199C101.398 141.085 101.223 141.024 101.066 141.014C100.818 140.999 100.624 141.111 100.483 141.35C100.358 141.561 100.347 141.763 100.452 141.955C100.557 142.146 100.723 142.31 100.951 142.445C101.171 142.575 101.382 142.635 101.585 142.625C101.788 142.616 101.952 142.506 102.076 142.297ZM100.186 141.161C100.344 140.895 100.565 140.724 100.85 140.645C101.136 140.566 101.451 140.628 101.794 140.832C102.127 141.029 102.353 141.272 102.474 141.562C102.595 141.852 102.556 142.166 102.354 142.506C102.186 142.79 101.957 142.958 101.667 143.012C101.377 143.065 101.07 142.996 100.746 142.805C100.4 142.599 100.176 142.349 100.075 142.051C99.9739 141.754 100.011 141.457 100.186 141.161Z" fill="#FCFBF5"/>
<path d="M100.432 139.135L100.637 138.789L103.463 140.462L103.258 140.809L100.432 139.135Z" fill="#FCFBF5"/>
<path d="M106.739 170.209L129.005 181.426L106.739 170.209Z" fill="#3B3B3B"/>
<path d="M106.739 170.209L129.005 181.426" stroke="#151414" stroke-linecap="round" stroke-linejoin="round"/>
</g>
<rect width="375" height="334" fill="url(#paint0_linear)"/>
<rect width="375" height="334" fill="url(#paint1_linear)"/>
</g>
<defs>
<linearGradient id="paint0_linear" x1="375" y1="-6.59133e-05" x2="109.582" y2="241.213" gradientUnits="userSpaceOnUse">
<stop/>
<stop offset="0.715518" stop-color="#0A0D01" stop-opacity="0.0416667"/>
<stop offset="1" stop-color="#0A0E01" stop-opacity="0"/>
</linearGradient>
<linearGradient id="paint1_linear" x1="0" y1="0" x2="273.035" y2="235.347" gradientUnits="userSpaceOnUse">
<stop/>
<stop offset="0.721751" stop-color="#0A0D01" stop-opacity="0.0416667"/>
<stop offset="1" stop-color="#0A0E01" stop-opacity="0"/>
</linearGradient>
<clipPath id="clip0">
<rect width="375" height="334" fill="white"/>
</clipPath>
<clipPath id="clip1">
<rect width="83.0154" height="286.181" fill="white" transform="matrix(-0.482842 -0.875707 -0.875707 0.482842 328.694 196.304)"/>
</clipPath>
<clipPath id="clip2">
<rect width="83.0154" height="286.181" fill="white" transform="translate(46.6941 195.697) rotate(-61.1288)"/>
</clipPath>
</defs>
</svg>
