<svg width="1440" height="867" viewBox="0 0 1440 867" fill="none" xmlns="http://www.w3.org/2000/svg">
<g clip-path="url(#clip0)">
<path opacity="0.559319" d="M573.06 550.611L735.862 453.075" stroke="black" stroke-linecap="round" stroke-linejoin="round"/>
<path d="M582.063 575.177C572.437 553.558 566.475 550.667 531.533 547.49C511.028 545.447 483.629 554.063 426.299 569.81C426.031 565.309 495.733 545.37 513.787 538.633C556.962 522.821 586.273 500.321 611.702 482.501C652.496 453.911 683.299 437.363 745.312 479.783C775.097 462.592 776.472 461.611 779.292 459.763C793.755 450.28 745.179 411.851 722.395 416.065C723.135 413.311 723.135 413.311 723.874 410.555C718.363 409.08 718.363 409.08 712.854 407.602C713.594 404.848 713.594 404.848 714.332 402.092C709.403 404.829 704.892 408.871 699.744 411.16C681.099 419.463 659.077 429.922 634.682 442.022C444.152 536.52 108.755 731.003 104.557 777.784C121.313 782.275 149.196 782.488 187.002 763.079C237.836 736.981 302.476 686.581 342.873 669.492C367.431 659.104 387.979 657.904 390.627 658.076C387.472 659.398 338.371 672.911 305.262 691.31C257.025 718.116 192.386 752.558 189.5 779.44C181.576 810.005 200.189 825.822 204.927 840.297C212.597 851.689 214.303 835.944 218.412 832.978C222.584 813.684 221.269 801.098 233.974 784.119C261.391 755.467 295.351 736.003 329.749 714.011C399.254 669.574 484.406 625.331 582.063 575.177Z" fill="#C94841" stroke="#5C0601" stroke-linecap="round" stroke-linejoin="round"/>
<path d="M216.679 847.226C217.238 841.179 218.358 834.228 218.632 832.509C200.121 853.377 186.556 785.719 210.092 762.967C226.752 746.862 247.219 731.944 269.369 718.326C309.266 693.797 354.62 673.492 393.015 658.088C369.612 659.18 351.174 667.214 331.875 659.7C335.051 663.45 339.108 667.925 336.8 671.59C332.749 671.404 322.36 661.78 316.417 673.348C288.266 688.101 227.918 732.135 180.484 756.818C168.519 763.044 160.42 765.682 152.354 768.65C143.19 772.021 128.845 777.601 112.206 776.199C68.4654 772.516 214.324 872.673 216.679 847.226Z" fill="#3B3B3B" stroke="#151414" stroke-linecap="round" stroke-linejoin="round"/>
<path d="M1429.4 334.038C1400.57 326.308 1378.13 299.303 1356.05 279.714C1328.7 295.501 1215.92 357.277 1189.97 372.103C1189.42 399.787 1184.64 434.485 1178.15 464.578C1235.2 476.523 1411.5 400.814 1429.4 334.038Z" fill="#9B9A98" stroke="#4F4F4F" stroke-linecap="round" stroke-linejoin="round"/>
<path d="M1190.61 371.289C1190.61 371.289 1362.2 289.058 1354.61 278.613C1341.34 266.486 1279.11 196.825 1275.44 183.974C1269.53 172.577 1209.93 59.0609 1195.09 60.5039C1190.2 58.5295 1120.41 99.3662 1100.8 116.021C1104.3 122.033 1112.5 130.866 1115.26 131.605C1080.47 175.77 1085.88 137.896 1066.25 177.19C1001 248.758 699.506 406.952 705.014 408.429C704.278 411.183 725.805 403.62 722.513 417.26C738.31 416.747 779.339 460.205 779.339 460.205C779.339 460.205 1073.82 291.993 1181.34 242.862C1180.34 258.132 1199.98 254.747 1198.87 258.879C1195.32 301.168 1190.61 371.289 1190.61 371.289Z" fill="#3B3B3B" stroke="#151414" stroke-linecap="round" stroke-linejoin="round"/>
<path d="M1181.5 243L1115 131.5L1181.5 243Z" fill="#3B3B3B"/>
<path d="M1181.5 243L1115 131.5" stroke="#151414" stroke-linecap="round" stroke-linejoin="round"/>
<path d="M580.988 575.742C646.356 535.454 689.033 509.435 745.357 478.622C724.336 419.111 691.295 431.569 658.261 445.347C578.44 477.174 422.021 566.276 425.321 569.054C428.62 571.833 566.406 521.807 580.988 575.742Z" fill="#3B3B3B" stroke="#151414" stroke-linecap="round" stroke-linejoin="round"/>
<path d="M510.713 577.882C476.648 568.749 381.99 595.459 372.124 632.258C395.837 638.614 443 628.84 475.865 611.492C493.723 602.066 507.357 590.405 510.713 577.882Z" fill="#3B3B3B" stroke="#151414" stroke-linecap="round" stroke-linejoin="round"/>
<path d="M1197 81.1494L1198.14 83.053L1184.23 91.4171L1183.08 89.5134L1197 81.1494Z" fill="#FCFBF5"/>
<path d="M1196.78 89.3225L1197.75 90.9424L1196.31 91.8064C1197.19 91.9306 1197.92 92.1815 1198.51 92.5638C1199.09 92.9439 1199.58 93.4637 1199.97 94.1208C1200.84 95.5613 1200.92 96.8337 1200.22 97.9428C1199.84 98.5506 1199.13 99.1626 1198.11 99.7765L1191.6 103.688L1190.56 101.956L1196.95 98.1121C1197.57 97.7407 1198.02 97.3482 1198.29 96.9392C1198.73 96.2545 1198.72 95.5157 1198.24 94.7202C1198 94.3152 1197.76 94.0106 1197.52 93.799C1197.1 93.4159 1196.58 93.1736 1195.95 93.0697C1195.44 92.9859 1194.99 93.0108 1194.58 93.1393C1194.17 93.268 1193.63 93.5315 1192.97 93.9299L1187.66 97.1233L1186.63 95.4184L1196.78 89.3225Z" fill="#FCFBF5"/>
<path d="M1207 99.9186L1208.04 101.643L1205.21 103.347L1206.18 104.967L1204.79 105.802L1203.81 104.182L1197.19 108.163C1196.84 108.374 1196.67 108.638 1196.7 108.949C1196.71 109.122 1196.81 109.365 1196.99 109.675C1197.04 109.757 1197.1 109.844 1197.16 109.936C1197.22 110.029 1197.29 110.136 1197.38 110.254L1196.03 111.062C1195.86 110.901 1195.7 110.722 1195.54 110.527C1195.39 110.329 1195.24 110.109 1195.09 109.861C1194.62 109.066 1194.5 108.405 1194.73 107.875C1194.97 107.347 1195.41 106.887 1196.06 106.494L1202.78 102.457L1201.95 101.085L1203.34 100.247L1204.17 101.622L1207 99.9186Z" fill="#FCFBF5"/>
<path d="M1210.67 111.928C1211.11 112.648 1211.36 113.448 1211.43 114.326C1211.49 115.205 1211.37 115.982 1211.04 116.659C1210.73 117.307 1210.27 117.893 1209.66 118.417C1209.26 118.8 1208.54 119.297 1207.52 119.913L1203.05 112.475C1202.04 113.127 1201.36 113.865 1201.01 114.694C1200.66 115.523 1200.77 116.415 1201.35 117.368C1201.88 118.258 1202.6 118.791 1203.51 118.97C1204.03 119.067 1204.56 119.046 1205.08 118.903L1206.09 120.578C1205.69 120.758 1205.18 120.862 1204.58 120.887C1203.97 120.913 1203.43 120.858 1202.95 120.723C1202.13 120.508 1201.41 120.074 1200.77 119.416C1200.42 119.066 1200.09 118.631 1199.78 118.114C1199.02 116.851 1198.84 115.505 1199.23 114.075C1199.62 112.644 1200.65 111.433 1202.3 110.437C1203.93 109.457 1205.52 109.106 1207.07 109.379C1208.61 109.652 1209.82 110.502 1210.67 111.928ZM1207.82 117.345C1208.52 116.833 1209.01 116.316 1209.3 115.798C1209.84 114.838 1209.78 113.811 1209.12 112.717C1208.65 111.936 1207.98 111.449 1207.09 111.257C1206.21 111.067 1205.32 111.218 1204.43 111.71L1207.82 117.345Z" fill="#FCFBF5"/>
<path d="M1215.12 119.847L1216.1 121.467L1214.35 122.52C1214.77 122.447 1215.38 122.523 1216.18 122.747C1216.98 122.971 1217.58 123.421 1217.99 124.095C1218.01 124.126 1218.04 124.184 1218.07 124.263C1218.11 124.342 1218.18 124.478 1218.27 124.674L1216.47 125.756C1216.43 125.643 1216.39 125.543 1216.34 125.454C1216.3 125.365 1216.24 125.269 1216.18 125.167C1215.67 124.308 1214.99 123.815 1214.16 123.686C1213.33 123.558 1212.56 123.71 1211.84 124.143L1206 127.65L1204.98 125.945L1215.12 119.847Z" fill="#FCFBF5"/>
<path d="M1222.72 126.068L1223.76 127.792L1220.92 129.494L1221.9 131.114L1220.5 131.951L1219.53 130.331L1212.91 134.31C1212.56 134.524 1212.39 134.785 1212.42 135.099C1212.43 135.272 1212.52 135.514 1212.71 135.824C1212.76 135.904 1212.81 135.993 1212.87 136.086C1212.93 136.178 1213.01 136.285 1213.1 136.404L1211.75 137.212C1211.58 137.05 1211.41 136.872 1211.26 136.674C1211.11 136.478 1210.96 136.256 1210.81 136.011C1210.33 135.215 1210.21 134.552 1210.45 134.024C1210.68 133.494 1211.13 133.034 1211.78 132.644L1218.49 128.607L1217.67 127.234L1219.06 126.397L1219.89 127.77L1222.72 126.068Z" fill="#FCFBF5"/>
<path d="M1217 143.451C1217.68 144.581 1218.57 145.1 1219.68 145.006C1220.79 144.912 1221.87 144.55 1222.91 143.918C1223.86 143.351 1224.54 142.736 1224.95 142.075C1225.6 141.035 1225.57 139.924 1224.86 138.751C1224.23 137.708 1223.38 137.19 1222.3 137.194C1221.22 137.198 1220.12 137.541 1219 138.217C1217.92 138.865 1217.16 139.641 1216.72 140.547C1216.29 141.453 1216.38 142.423 1217 143.451ZM1226.38 137.904C1227.16 139.211 1227.39 140.578 1227.06 142.007C1226.73 143.432 1225.72 144.653 1224.03 145.672C1222.4 146.655 1220.81 147.07 1219.26 146.915C1217.71 146.761 1216.44 145.846 1215.43 144.173C1214.59 142.778 1214.4 141.386 1214.85 139.998C1215.3 138.608 1216.32 137.437 1217.91 136.48C1219.62 135.454 1221.24 135.072 1222.77 135.329C1224.3 135.587 1225.5 136.446 1226.38 137.904Z" fill="#FCFBF5"/>
<path d="M1224.19 155.412C1224.87 156.542 1225.76 157.058 1226.87 156.964C1227.97 156.87 1229.05 156.508 1230.1 155.879C1231.05 155.309 1231.73 154.694 1232.14 154.035C1232.79 152.993 1232.76 151.885 1232.05 150.709C1231.42 149.668 1230.57 149.15 1229.49 149.155C1228.41 149.159 1227.31 149.499 1226.18 150.175C1225.1 150.823 1224.35 151.602 1223.91 152.508C1223.48 153.414 1223.57 154.381 1224.19 155.412ZM1233.57 149.864C1234.35 151.171 1234.58 152.537 1234.25 153.965C1233.92 155.39 1232.91 156.614 1231.22 157.63C1229.58 158.614 1227.99 159.028 1226.45 158.874C1224.9 158.719 1223.63 157.806 1222.62 156.133C1221.78 154.736 1221.59 153.344 1222.04 151.956C1222.49 150.569 1223.51 149.395 1225.1 148.439C1226.81 147.415 1228.42 147.03 1229.95 147.287C1231.49 147.547 1232.69 148.404 1233.57 149.864Z" fill="#FCFBF5"/>
<path d="M1241.8 155.689L1242.82 157.394L1228.91 165.758L1227.88 164.05L1241.8 155.689Z" fill="#FCFBF5"/>
<path d="M1167.12 236.358L1057.06 291.804L1167.12 236.358Z" fill="#3B3B3B"/>
<path d="M1167.12 236.358L1057.06 291.804" stroke="#151414" stroke-linecap="round" stroke-linejoin="round"/>
</g>
<g clip-path="url(#clip1)">
<path opacity="0.559319" d="M871.869 547.611L709.067 450.075" stroke="black" stroke-linecap="round" stroke-linejoin="round"/>
<path d="M862.866 572.177C872.493 550.558 878.455 547.667 913.396 544.49C933.902 542.447 961.301 551.063 1018.63 566.81C1018.9 562.309 949.197 542.37 931.142 535.633C887.967 519.821 858.657 497.321 833.228 479.501C792.433 450.911 761.631 434.363 699.617 476.783C669.832 459.592 668.457 458.611 665.638 456.763C651.174 447.28 699.751 408.851 722.534 413.065C721.794 410.311 721.794 410.311 721.055 407.555C726.566 406.08 726.566 406.08 732.076 404.602C731.336 401.848 731.336 401.848 730.597 399.092C735.527 401.829 740.038 405.871 745.186 408.16C763.831 416.463 785.852 426.922 810.248 439.022C1000.78 533.52 1336.17 728.003 1340.37 774.784C1323.62 779.275 1295.73 779.488 1257.93 760.079C1207.09 733.981 1142.45 683.581 1102.06 666.492C1077.5 656.104 1056.95 654.904 1054.3 655.076C1057.46 656.398 1106.56 669.911 1139.67 688.31C1187.9 715.116 1252.54 749.558 1255.43 776.44C1263.35 807.005 1244.74 822.822 1240 837.297C1232.33 848.689 1230.63 832.944 1226.52 829.978C1222.35 810.684 1223.66 798.098 1210.96 781.119C1183.54 752.467 1149.58 733.003 1115.18 711.011C1045.68 666.574 960.523 622.331 862.866 572.177Z" fill="#C94841" stroke="#5C0601" stroke-linecap="round" stroke-linejoin="round"/>
<path d="M1228.25 844.226C1227.69 838.179 1226.57 831.228 1226.3 829.509C1244.81 850.377 1258.37 782.719 1234.84 759.967C1218.18 743.862 1197.71 728.944 1175.56 715.326C1135.66 690.797 1090.31 670.492 1051.91 655.088C1075.32 656.18 1093.76 664.214 1113.05 656.7C1109.88 660.45 1105.82 664.925 1108.13 668.59C1112.18 668.404 1122.57 658.78 1128.51 670.348C1156.66 685.101 1217.01 729.135 1264.45 753.818C1276.41 760.044 1284.51 762.682 1292.58 765.65C1301.74 769.021 1316.08 774.601 1332.72 773.199C1376.46 769.516 1230.61 869.673 1228.25 844.226Z" fill="#3B3B3B" stroke="#151414" stroke-linecap="round" stroke-linejoin="round"/>
<path d="M15.5283 331.038C44.3588 323.308 66.7962 296.303 88.8813 276.714C116.233 292.501 229.008 354.277 254.959 369.103C255.514 396.787 260.292 431.485 266.779 461.578C209.733 473.523 33.4308 397.814 15.5283 331.038Z" fill="#9B9A98" stroke="#4F4F4F" stroke-linecap="round" stroke-linejoin="round"/>
<path d="M254.553 368.15C254.553 368.15 82.9607 285.92 90.5535 275.475C103.822 263.347 166.048 193.686 169.715 180.835C175.63 169.438 235.225 55.9222 250.065 57.3653C254.963 55.3908 324.749 96.2276 344.36 112.882C340.855 118.894 332.658 127.727 329.903 128.466C364.69 172.631 359.278 134.758 378.908 174.051C444.16 245.619 745.653 403.814 740.145 405.29C740.881 408.045 719.353 400.482 722.646 414.122C706.849 413.608 665.819 457.066 665.819 457.066C665.819 457.066 371.342 288.854 263.817 239.723C264.822 254.993 245.177 251.608 246.285 255.74C249.834 298.029 254.553 368.15 254.553 368.15Z" fill="#3B3B3B" stroke="#151414" stroke-linecap="round" stroke-linejoin="round"/>
<path d="M264 239.5L329.956 128.463L264 239.5Z" fill="#3B3B3B"/>
<path d="M264 239.5L329.956 128.463" stroke="#151414" stroke-linecap="round" stroke-linejoin="round"/>
<path d="M863.941 572.742C798.574 532.454 755.896 506.435 699.572 475.622C720.593 416.111 753.634 428.569 786.668 442.347C866.489 474.174 1022.91 563.276 1019.61 566.054C1016.31 568.833 878.523 518.807 863.941 572.742Z" fill="#3B3B3B" stroke="#151414" stroke-linecap="round" stroke-linejoin="round"/>
<path d="M934.217 574.882C968.281 565.749 1062.94 592.459 1072.81 629.258C1049.09 635.614 1001.93 625.84 969.064 608.492C951.207 599.066 937.573 587.405 934.217 574.882Z" fill="#3B3B3B" stroke="#151414" stroke-linecap="round" stroke-linejoin="round"/>
<path d="M202.334 154.599L203.465 152.687L217.436 160.956L216.305 162.868L202.334 154.599Z" fill="#FCFBF5"/>
<path d="M209.629 150.908L210.592 149.282L212.037 150.139C211.727 149.303 211.6 148.541 211.66 147.847C211.718 147.155 211.943 146.478 212.334 145.818C213.19 144.372 214.271 143.696 215.579 143.785C216.296 143.833 217.168 144.16 218.195 144.769L224.729 148.636L223.699 150.374L217.279 146.576C216.658 146.208 216.102 146.004 215.614 145.961C214.798 145.892 214.155 146.256 213.682 147.054C213.442 147.461 213.287 147.816 213.215 148.127C213.077 148.678 213.113 149.254 213.321 149.858C213.487 150.342 213.726 150.732 214.033 151.03C214.34 151.328 214.827 151.674 215.492 152.069L220.827 155.227L219.814 156.939L209.629 150.908Z" fill="#FCFBF5"/>
<path d="M214.094 136.877L215.119 135.146L217.964 136.827L218.926 135.201L220.323 136.03L219.36 137.657L226.009 141.59C226.364 141.801 226.674 141.82 226.936 141.652C227.084 141.561 227.251 141.359 227.435 141.048C227.484 140.965 227.534 140.876 227.587 140.78C227.64 140.683 227.698 140.566 227.761 140.432L229.111 141.231C229.052 141.462 228.972 141.69 228.873 141.917C228.771 142.146 228.648 142.382 228.501 142.63C228.029 143.429 227.504 143.848 226.926 143.893C226.348 143.936 225.733 143.763 225.079 143.379L218.336 139.388L217.52 140.766L216.122 139.939L216.939 138.559L214.094 136.877Z" fill="#FCFBF5"/>
<path d="M222.916 127.939C223.344 127.216 223.929 126.616 224.669 126.138C225.41 125.661 226.154 125.405 226.904 125.367C227.62 125.33 228.354 125.456 229.107 125.747C229.636 125.922 230.414 126.315 231.442 126.922L227.022 134.39C228.075 134.968 229.048 135.216 229.943 135.129C230.838 135.041 231.569 134.519 232.135 133.562C232.664 132.669 232.791 131.781 232.518 130.898C232.355 130.392 232.087 129.941 231.712 129.548L232.707 127.865C233.055 128.131 233.385 128.524 233.697 129.047C234.008 129.57 234.217 130.073 234.325 130.557C234.524 131.377 234.487 132.221 234.21 133.094C234.067 133.567 233.842 134.064 233.535 134.582C232.784 135.851 231.687 136.652 230.242 136.987C228.798 137.323 227.246 136.999 225.584 136.016C223.948 135.049 222.883 133.817 222.388 132.325C221.892 130.834 222.069 129.371 222.916 127.939ZM229.04 127.878C228.257 127.507 227.568 127.319 226.975 127.309C225.873 127.291 224.997 127.83 224.347 128.928C223.883 129.712 223.776 130.539 224.027 131.41C224.28 132.278 224.835 132.986 225.691 133.536L229.04 127.878Z" fill="#FCFBF5"/>
<path d="M227.769 120.261L228.732 118.634L230.491 119.676C230.227 119.341 230.004 118.767 229.82 117.956C229.637 117.144 229.746 116.4 230.147 115.723C230.165 115.692 230.202 115.637 230.253 115.566C230.304 115.494 230.393 115.372 230.522 115.198L232.329 116.268C232.249 116.359 232.182 116.444 232.125 116.526C232.068 116.607 232.009 116.7 231.948 116.802C231.438 117.664 231.324 118.49 231.604 119.283C231.885 120.073 232.387 120.682 233.11 121.11L238.969 124.577L237.956 126.289L227.769 120.261Z" fill="#FCFBF5"/>
<path d="M229.634 110.622L230.659 108.891L233.502 110.575L234.465 108.948L235.863 109.775L234.901 111.402L241.548 115.338C241.904 115.546 242.212 115.568 242.476 115.396C242.624 115.306 242.79 115.104 242.975 114.793C243.022 114.712 243.074 114.621 243.127 114.524C243.18 114.428 243.239 114.311 243.301 114.177L244.651 114.976C244.592 115.207 244.512 115.435 244.411 115.664C244.311 115.891 244.187 116.129 244.042 116.375C243.569 117.174 243.043 117.596 242.466 117.638C241.887 117.683 241.272 117.511 240.619 117.124L233.876 113.133L233.06 114.511L231.662 113.684L232.478 112.306L229.634 110.622Z" fill="#FCFBF5"/>
<path d="M247.648 107.396C248.32 106.261 248.352 105.228 247.742 104.298C247.133 103.367 246.302 102.59 245.248 101.969C244.298 101.404 243.435 101.099 242.658 101.052C241.435 100.976 240.473 101.532 239.775 102.71C239.156 103.757 239.105 104.754 239.622 105.703C240.14 106.651 240.964 107.457 242.093 108.125C243.177 108.767 244.22 109.066 245.224 109.018C246.228 108.971 247.037 108.428 247.648 107.396ZM238.31 101.779C239.087 100.467 240.182 99.6156 241.594 99.2255C243.005 98.8379 244.56 99.1475 246.26 100.152C247.902 101.123 249.023 102.325 249.621 103.759C250.22 105.192 250.021 106.75 249.027 108.43C248.198 109.83 247.065 110.663 245.63 110.925C244.193 111.19 242.677 110.848 241.079 109.902C239.367 108.89 238.261 107.648 237.761 106.179C237.26 104.711 237.444 103.242 238.31 101.779Z" fill="#FCFBF5"/>
<path d="M254.756 95.3871C255.428 94.2525 255.458 93.2213 254.849 92.2912C254.239 91.361 253.408 90.5841 252.356 89.9603C251.405 89.3979 250.541 89.0921 249.765 89.0429C248.542 88.97 247.581 89.5228 246.882 90.7036C246.264 91.7483 246.213 92.7448 246.73 93.6936C247.247 94.6423 248.07 95.4508 249.199 96.1187C250.283 96.7609 251.328 97.0569 252.332 97.0095C253.336 96.962 254.144 96.4219 254.756 95.3871ZM245.418 89.7703C246.195 88.4579 247.288 87.6093 248.7 87.2191C250.111 86.8315 251.667 87.1387 253.366 88.1454C255.009 89.1168 256.129 90.3191 256.728 91.7525C257.326 93.1859 257.129 94.7414 256.135 96.4215C255.304 97.8239 254.172 98.6564 252.736 98.9188C251.301 99.1814 249.784 98.8411 248.186 97.8957C246.474 96.8815 245.368 95.6414 244.867 94.1729C244.368 92.702 244.55 91.2362 245.418 89.7703Z" fill="#FCFBF5"/>
<path d="M246.631 79.7582L247.644 78.0466L261.615 86.3155L260.601 88.0297L246.631 79.7582Z" fill="#FCFBF5"/>
<path d="M277.808 233.358L387.872 288.804L277.808 233.358Z" fill="#3B3B3B"/>
<path d="M277.808 233.358L387.872 288.804" stroke="#151414" stroke-linecap="round" stroke-linejoin="round"/>
</g>
<defs>
<clipPath id="clip0">
<rect width="410.353" height="1414.62" fill="white" transform="matrix(-0.482842 -0.875707 -0.875707 0.482842 1463.93 362.349)"/>
</clipPath>
<clipPath id="clip1">
<rect width="410.353" height="1414.62" fill="white" transform="translate(-19 359.349) rotate(-61.1288)"/>
</clipPath>
</defs>
</svg>
