<svg width="16" height="16" viewBox="0 0 16 16" fill="none" xmlns="http://www.w3.org/2000/svg">
<path d="M7.05764 7.06868C6.3449 6.10166 5.6379 5.00518 4.96209 3.69626C4.66122 3.90357 4.36402 4.15079 4.07147 4.39413C3.27405 5.05743 2.51122 5.69197 1.80314 5.41112C0.443348 4.87176 -0.356215 2.31647 0.156256 1.00871C0.423644 0.326372 1.36075 0.452797 2.40489 0.59366C2.81128 0.648485 3.23387 0.705497 3.63951 0.717865C3.61047 0.641527 3.58154 0.564603 3.55272 0.487085L4.81272 0C4.87268 0.161252 4.93311 0.319774 4.99398 0.475656C5.03445 0.454073 5.07397 0.430796 5.11246 0.405725C6.58362 -0.552567 7.67154 3.23555 6.34544 3.18083C6.30322 3.17908 6.26105 3.17931 6.21891 3.1814C6.76623 4.22751 7.33455 5.12957 7.91114 5.93859C8.48779 5.12947 9.05618 4.22729 9.60356 3.18101C8.36448 3.13712 9.42302 -0.496603 10.8618 0.389424C10.9114 0.261402 10.9606 0.13161 11.0095 0L12.2696 0.487085C12.2404 0.565418 12.2112 0.643144 12.1818 0.720272C12.6408 0.722398 13.1287 0.656588 13.5951 0.59366C14.6392 0.452797 15.5764 0.326372 15.8437 1.00871C16.3562 2.31647 15.5567 4.87176 14.1969 5.41112C13.4888 5.69197 12.7259 5.05743 11.9285 4.39413C11.5932 4.11517 11.2517 3.83112 10.9056 3.60793C10.2161 4.95596 9.49334 6.07998 8.76463 7.06868C9.18214 7.59268 9.60069 8.08163 10.0156 8.55441C10.2237 8.79161 10.4321 9.02587 10.6399 9.25941C12.224 11.0399 13.7712 12.779 14.8844 15.4679L13.6421 16C12.6187 13.5279 11.2197 11.9531 9.63254 10.1663C9.42479 9.93248 9.21381 9.69498 9.00003 9.45136C8.64051 9.04165 8.2764 8.61781 7.91114 8.1687C7.54587 8.61781 7.18176 9.04165 6.82224 9.45136C6.60846 9.69498 6.39748 9.93248 6.18973 10.1663C4.60256 11.9531 3.20359 13.5279 2.1802 16L0.937857 15.4679C2.05104 12.779 3.59822 11.04 5.1823 9.25948L5.18245 9.25932C5.3902 9.02581 5.59859 8.79158 5.80672 8.55441C6.22158 8.08163 6.64013 7.59268 7.05764 7.06868Z" fill="white"/>
</svg>
