<svg width="100" height="148" viewBox="0 0 100 148" fill="none" xmlns="http://www.w3.org/2000/svg">
<path d="M0 30.577L9.08854 134.318L50 148L90.9115 134.318L100 30.577H0ZM81.5365 51.5454L80.2865 63.9429L50.2604 76.8647L50.1823 76.8909H79.2188L75.8854 115.315L50.3125 122.838L24.5833 115.184L22.9167 95.8149H35.651L36.4844 105.854L50.1823 109.34L64.4271 105.303L65.3906 89.1574L22.0833 89.0264V89.0002L22.0313 89.0264L21.0938 76.8909L50.2865 64.6506L51.9792 63.9429H19.974L18.4635 51.5454H81.5365Z" fill="#FFFEFE"/>
<path d="M42.0042 1.74726C42.2866 1.91634 42.4278 2.15119 42.4278 2.45179C42.4278 2.62088 42.3619 2.80876 42.2301 3.01542C42.0607 3.22209 41.8442 3.32542 41.5807 3.32542C41.4301 3.32542 41.2795 3.27845 41.1289 3.18451C39.6231 2.18877 37.976 1.69089 36.1878 1.69089C34.6631 1.69089 33.2795 2.04786 32.0372 2.76179C30.8136 3.47572 29.8442 4.48086 29.1289 5.77721C28.4325 7.05478 28.0842 8.51082 28.0842 10.1454C28.0842 11.8175 28.4419 13.3017 29.1572 14.598C29.8725 15.8756 30.8419 16.8713 32.0654 17.5853C33.3078 18.2804 34.6819 18.628 36.1878 18.628C37.976 18.628 39.6136 18.1395 41.1007 17.1626C41.2513 17.0686 41.4113 17.0216 41.5807 17.0216C41.8442 17.0216 42.0607 17.1344 42.2301 17.3598C42.3619 17.5101 42.4278 17.6886 42.4278 17.8953C42.4278 18.1959 42.296 18.4213 42.0325 18.5716C41.2983 19.0601 40.3948 19.4734 39.3219 19.8116C38.2489 20.131 37.2042 20.2907 36.1878 20.2907C34.3995 20.2907 32.7431 19.868 31.2183 19.0225C29.7125 18.1583 28.5078 16.9559 27.6042 15.4153C26.7195 13.8747 26.2772 12.1181 26.2772 10.1454C26.2772 8.24779 26.7195 6.52872 27.6042 4.98813C28.4889 3.42875 29.6842 2.21695 31.1901 1.35271C32.696 0.469692 34.3619 0.0281812 36.1878 0.0281812C37.2419 0.0281812 38.2678 0.178483 39.2654 0.479087C40.2819 0.779689 41.1948 1.20241 42.0042 1.74726Z" fill="#FFFEFE"/>
<path d="M51.3592 20.2907C50.0039 20.2907 48.7992 20.0652 47.745 19.6143C46.7097 19.1634 45.7027 18.4589 44.7239 17.5007C44.498 17.3129 44.385 17.0874 44.385 16.8244C44.385 16.5989 44.4697 16.3923 44.6392 16.2044C44.8274 16.0165 45.0345 15.9226 45.2603 15.9226C45.4862 15.9226 45.6933 16.0165 45.8815 16.2044C47.3497 17.8201 49.185 18.628 51.3874 18.628C52.7427 18.628 53.8627 18.3086 54.7474 17.6698C55.6509 17.031 56.1027 16.195 56.1027 15.1617C56.1027 14.3538 55.8768 13.6868 55.425 13.1608C54.9921 12.6159 54.418 12.1744 53.7027 11.8362C52.9874 11.4981 52.0745 11.1505 50.9639 10.7935C49.7592 10.4366 48.7427 10.042 47.9144 9.6099C47.105 9.17778 46.4462 8.60476 45.938 7.89083C45.4297 7.15811 45.1756 6.23751 45.1756 5.12904C45.1756 4.13329 45.4392 3.25027 45.9662 2.47997C46.5121 1.70968 47.265 1.10847 48.225 0.676356C49.2039 0.225452 50.3239 0 51.585 0C52.7333 0 53.8062 0.197271 54.8039 0.591813C55.8203 0.967566 56.6297 1.51241 57.2321 2.22634C57.5145 2.54573 57.6556 2.81815 57.6556 3.0436C57.6556 3.25027 57.5615 3.44754 57.3733 3.63542C57.185 3.80451 56.978 3.88905 56.7521 3.88905C56.5639 3.88905 56.4039 3.82329 56.2721 3.69178C55.7639 3.09057 55.0862 2.6021 54.2392 2.22634C53.3921 1.85059 52.5074 1.66271 51.585 1.66271C50.2109 1.66271 49.0909 1.97271 48.225 2.5927C47.3592 3.19391 46.9262 4.02056 46.9262 5.07268C46.9262 6.16236 47.3403 6.99841 48.1686 7.58083C48.9968 8.16325 50.1827 8.6987 51.7262 9.18718C53.0627 9.58172 54.1545 9.98566 55.0015 10.399C55.8486 10.8123 56.5356 11.4041 57.0627 12.1744C57.6086 12.9259 57.8815 13.9217 57.8815 15.1617C57.8815 16.1198 57.5992 16.9935 57.0345 17.7825C56.4886 18.5528 55.7168 19.1634 54.7192 19.6143C53.7403 20.0652 52.6203 20.2907 51.3592 20.2907Z" fill="#FFFEFE"/>
<path d="M67.2139 20.2907C65.8586 20.2907 64.6539 20.0652 63.5998 19.6143C62.5645 19.1634 61.5575 18.4589 60.5786 17.5007C60.3528 17.3129 60.2398 17.0874 60.2398 16.8244C60.2398 16.5989 60.3245 16.3923 60.4939 16.2044C60.6822 16.0165 60.8892 15.9226 61.1151 15.9226C61.341 15.9226 61.5481 16.0165 61.7363 16.2044C63.2045 17.8201 65.0398 18.628 67.2422 18.628C68.5975 18.628 69.7175 18.3086 70.6022 17.6698C71.5057 17.031 71.9575 16.195 71.9575 15.1617C71.9575 14.3538 71.7316 13.6868 71.2798 13.1608C70.8469 12.6159 70.2728 12.1744 69.5575 11.8362C68.8422 11.4981 67.9292 11.1505 66.8186 10.7935C65.6139 10.4366 64.5975 10.042 63.7692 9.6099C62.9598 9.17778 62.301 8.60476 61.7928 7.89083C61.2845 7.15811 61.0304 6.23751 61.0304 5.12904C61.0304 4.13329 61.2939 3.25027 61.821 2.47997C62.3669 1.70968 63.1198 1.10847 64.0798 0.676356C65.0586 0.225452 66.1786 0 67.4398 0C68.5881 0 69.661 0.197271 70.6586 0.591813C71.6751 0.967566 72.4845 1.51241 73.0869 2.22634C73.3692 2.54573 73.5104 2.81815 73.5104 3.0436C73.5104 3.25027 73.4163 3.44754 73.2281 3.63542C73.0398 3.80451 72.8328 3.88905 72.6069 3.88905C72.4186 3.88905 72.2586 3.82329 72.1269 3.69178C71.6186 3.09057 70.941 2.6021 70.0939 2.22634C69.2469 1.85059 68.3622 1.66271 67.4398 1.66271C66.0657 1.66271 64.9457 1.97271 64.0798 2.5927C63.2139 3.19391 62.781 4.02056 62.781 5.07268C62.781 6.16236 63.1951 6.99841 64.0234 7.58083C64.8516 8.16325 66.0375 8.6987 67.581 9.18718C68.9175 9.58172 70.0092 9.98566 70.8563 10.399C71.7033 10.8123 72.3904 11.4041 72.9175 12.1744C73.4633 12.9259 73.7363 13.9217 73.7363 15.1617C73.7363 16.1198 73.4539 16.9935 72.8892 17.7825C72.3433 18.5528 71.5716 19.1634 70.5739 19.6143C69.5951 20.0652 68.4751 20.2907 67.2139 20.2907Z" fill="#FFFEFE"/>
</svg>
