<svg width="88" height="122" viewBox="0 0 88 122" fill="none" xmlns="http://www.w3.org/2000/svg">
<path d="M58.6095 63.3391C62.5001 63.3391 66.2313 61.7935 68.9824 59.0425C71.7335 56.2914 73.279 52.5601 73.279 48.6695C73.279 44.7789 71.7335 41.0477 68.9824 38.2966C66.2313 35.5455 62.5001 34 58.6095 34H29.2704C25.3821 34 21.653 35.5446 18.9036 38.2941C16.1541 41.0435 14.6095 44.7726 14.6095 48.6609C14.6095 52.5493 16.1541 56.2783 18.9036 59.0278C21.653 61.7772 25.3821 63.3219 29.2704 63.3219C25.3798 63.3219 21.6486 64.8674 18.8975 67.6185C16.1464 70.3696 14.6009 74.1008 14.6009 77.9914C14.6009 81.882 16.1464 85.6133 18.8975 88.3643C21.6486 91.1154 25.3798 92.6609 29.2704 92.6609C26.3691 92.6592 23.5323 93.5179 21.119 95.1284C18.7057 96.7389 16.8241 99.0289 15.7122 101.709C14.6004 104.389 14.3081 107.338 14.8725 110.184C15.4368 113.03 16.8325 115.645 18.8828 117.697C20.9332 119.75 23.5462 121.149 26.3915 121.716C29.2368 122.284 32.1865 121.995 34.8677 120.887C37.5488 119.778 39.841 117.899 41.4543 115.488C43.0676 113.076 43.9296 110.24 43.9313 107.339V63.3391H58.6095ZM58.6095 63.3391C55.7098 63.3391 52.8753 64.1989 50.4643 65.8099C48.0533 67.4208 46.1742 69.7106 45.0645 72.3895C43.9549 75.0684 43.6645 78.0163 44.2302 80.8602C44.7959 83.7042 46.1923 86.3165 48.2426 88.3669C50.293 90.4172 52.9053 91.8135 55.7493 92.3792C58.5932 92.9449 61.541 92.6546 64.22 91.5449C66.8989 90.4353 69.1886 88.5562 70.7996 86.1452C72.4106 83.7342 73.2704 80.8997 73.2704 78C73.27 74.1118 71.7252 70.383 68.9758 67.6337C66.2265 64.8843 62.4977 63.3395 58.6095 63.3391Z" fill="#FFFEFE"/>
<path d="M19.8761 7.2C20.0841 7.2 20.2521 7.272 20.3801 7.416C20.5241 7.544 20.5961 7.712 20.5961 7.92C20.5961 8.112 20.5241 8.28 20.3801 8.424C20.2521 8.552 20.0841 8.616 19.8761 8.616H11.8841V14.64H18.7961C19.0041 14.64 19.1721 14.704 19.3001 14.832C19.4441 14.96 19.5161 15.128 19.5161 15.336C19.5161 15.544 19.4441 15.712 19.3001 15.84C19.1721 15.968 19.0041 16.032 18.7961 16.032H11.8841V23.28C11.8841 23.488 11.8121 23.664 11.6681 23.808C11.5401 23.936 11.3721 24 11.1641 24C10.9401 24 10.7561 23.936 10.6121 23.808C10.4841 23.664 10.4201 23.488 10.4201 23.28V7.92C10.4201 7.712 10.4841 7.544 10.6121 7.416C10.7561 7.272 10.9321 7.2 11.1401 7.2H19.8761ZM25.5258 23.256C25.5098 23.464 25.4298 23.64 25.2858 23.784C25.1418 23.928 24.9658 24 24.7578 24C24.5338 24 24.3498 23.936 24.2058 23.808C24.0778 23.664 24.0138 23.48 24.0138 23.256V7.944C24.0138 7.72 24.0858 7.544 24.2298 7.416C24.3738 7.272 24.5578 7.2 24.7818 7.2C24.9898 7.2 25.1658 7.272 25.3098 7.416C25.4538 7.56 25.5258 7.736 25.5258 7.944V23.256ZM42.2778 15.528C42.4858 15.528 42.6538 15.6 42.7818 15.744C42.9258 15.872 42.9978 16.04 42.9978 16.248V22.032C42.9978 22.304 42.8778 22.52 42.6378 22.68C41.9178 23.176 41.1178 23.56 40.2378 23.832C39.3578 24.104 38.4618 24.24 37.5498 24.24C35.9178 24.24 34.4458 23.864 33.1338 23.112C31.8218 22.36 30.7898 21.328 30.0378 20.016C29.2858 18.704 28.9098 17.232 28.9098 15.6C28.9098 13.968 29.2858 12.496 30.0378 11.184C30.7898 9.872 31.8218 8.84 33.1338 8.088C34.4458 7.336 35.9178 6.96 37.5498 6.96C38.3978 6.96 39.2138 7.064 39.9978 7.272C40.7978 7.48 41.5098 7.776 42.1338 8.16C42.3578 8.304 42.4698 8.504 42.4698 8.76C42.4698 8.968 42.3978 9.144 42.2538 9.288C42.1258 9.432 41.9738 9.504 41.7978 9.504C41.6378 9.504 41.4938 9.464 41.3658 9.384C40.1658 8.728 38.8938 8.4 37.5498 8.4C36.1898 8.4 34.9658 8.712 33.8778 9.336C32.8058 9.96 31.9658 10.824 31.3578 11.928C30.7498 13.016 30.4458 14.24 30.4458 15.6C30.4458 16.96 30.7498 18.192 31.3578 19.296C31.9658 20.384 32.8058 21.24 33.8778 21.864C34.9658 22.488 36.1898 22.8 37.5498 22.8C38.2378 22.8 38.9258 22.704 39.6138 22.512C40.3178 22.32 40.9418 22.056 41.4858 21.72V16.968H37.6938C37.4858 16.968 37.3098 16.904 37.1658 16.776C37.0218 16.632 36.9498 16.456 36.9498 16.248C36.9498 16.04 37.0218 15.872 37.1658 15.744C37.3098 15.6 37.4858 15.528 37.6938 15.528H42.2778ZM61.3413 7.2C61.5333 7.2 61.6933 7.272 61.8213 7.416C61.9653 7.544 62.0373 7.712 62.0373 7.92V23.28C62.0373 23.488 61.9653 23.664 61.8213 23.808C61.6773 23.936 61.5013 24 61.2933 24C61.0693 24 60.8853 23.936 60.7413 23.808C60.5973 23.664 60.5253 23.488 60.5253 23.28V10.08L54.8853 18.624C54.7253 18.832 54.5413 18.928 54.3333 18.912H54.2853C54.0933 18.912 53.9173 18.816 53.7573 18.624L48.1173 10.032V23.28C48.1173 23.488 48.0453 23.664 47.9013 23.808C47.7733 23.936 47.6053 24 47.3973 24C47.1893 24 47.0213 23.936 46.8933 23.808C46.7653 23.664 46.7013 23.488 46.7013 23.28V7.92C46.7013 7.728 46.7653 7.56 46.8933 7.416C47.0373 7.272 47.2133 7.2 47.4213 7.2C47.5333 7.2 47.6533 7.232 47.7813 7.296C47.9093 7.344 48.0053 7.416 48.0693 7.512L54.3573 16.944L60.6933 7.512C60.8693 7.272 61.0853 7.168 61.3413 7.2ZM79.0809 23.04C79.1129 23.168 79.1289 23.264 79.1289 23.328C79.1289 23.536 79.0569 23.704 78.9129 23.832C78.7689 23.96 78.6009 24.024 78.4089 24.024C78.2489 24.024 78.1049 23.984 77.9769 23.904C77.8649 23.808 77.7769 23.688 77.7129 23.544L75.9129 19.152H68.1129L66.3369 23.544C66.2089 23.864 65.9929 24.024 65.6889 24.024C65.4649 24.024 65.2969 23.968 65.1849 23.856C65.0729 23.744 65.0089 23.592 64.9929 23.4V23.328C64.9929 23.232 65.0009 23.16 65.0169 23.112L71.3529 7.608C71.4809 7.288 71.7209 7.128 72.0729 7.128C72.2329 7.128 72.3689 7.176 72.4809 7.272C72.6089 7.352 72.7049 7.464 72.7689 7.608L79.0809 23.04ZM75.3369 17.736L71.9769 9.528L68.6649 17.736H75.3369Z" fill="#FFFEFE"/>
</svg>
