<svg width="88" height="117" viewBox="0 0 88 117" fill="none" xmlns="http://www.w3.org/2000/svg">
<path d="M29.8891 97.3031C29.8891 97.6469 29.4937 97.9219 28.9953 97.9219C28.4281 97.9734 28.0328 97.6984 28.0328 97.3031C28.0328 96.9594 28.4281 96.6844 28.9266 96.6844C29.4422 96.6328 29.8891 96.9078 29.8891 97.3031ZM24.5438 96.5297C24.4234 96.8734 24.7672 97.2687 25.2828 97.3719C25.7297 97.5437 26.2453 97.3719 26.3484 97.0281C26.4516 96.6844 26.125 96.2891 25.6094 96.1344C25.1625 96.0141 24.6641 96.1859 24.5438 96.5297ZM32.1406 96.2375C31.6422 96.3578 31.2984 96.6844 31.35 97.0797C31.4016 97.4234 31.8484 97.6469 32.3641 97.5266C32.8625 97.4063 33.2062 97.0797 33.1547 96.7359C33.1031 96.4094 32.6391 96.1859 32.1406 96.2375ZM43.45 30.375C19.6109 30.375 1.375 48.4734 1.375 72.3125C1.375 91.3734 13.3719 107.684 30.5078 113.425C32.7078 113.82 33.4813 112.463 33.4813 111.345C33.4813 110.28 33.4297 104.402 33.4297 100.792C33.4297 100.792 21.3984 103.37 18.8719 95.6703C18.8719 95.6703 16.9125 90.6687 14.0938 89.3797C14.0938 89.3797 10.1578 86.6812 14.3687 86.7328C14.3687 86.7328 18.6484 87.0766 21.0031 91.1672C24.7672 97.8016 31.075 95.8938 33.5328 94.7594C33.9281 92.0094 35.0453 90.1016 36.2828 88.9672C26.675 87.9016 16.9813 86.5094 16.9813 69.975C16.9813 65.2484 18.2875 62.8766 21.0375 59.8516C20.5906 58.7344 19.1297 54.1281 21.4844 48.1812C25.0766 47.0641 33.3438 52.8219 33.3438 52.8219C36.7812 51.8594 40.4766 51.3609 44.1375 51.3609C47.7984 51.3609 51.4938 51.8594 54.9313 52.8219C54.9313 52.8219 63.1984 47.0469 66.7906 48.1812C69.1453 54.1453 67.6844 58.7344 67.2375 59.8516C69.9875 62.8938 71.6719 65.2656 71.6719 69.975C71.6719 86.5609 61.5484 87.8844 51.9406 88.9672C53.5219 90.325 54.8625 92.9031 54.8625 96.9422C54.8625 102.734 54.8109 109.902 54.8109 111.311C54.8109 112.428 55.6016 113.786 57.7844 113.391C74.9719 107.684 86.625 91.3734 86.625 72.3125C86.625 48.4734 67.2891 30.375 43.45 30.375ZM18.0812 89.6547C17.8578 89.8266 17.9094 90.2219 18.2016 90.5484C18.4766 90.8234 18.8719 90.9438 19.0953 90.7203C19.3187 90.5484 19.2672 90.1531 18.975 89.8266C18.7 89.5516 18.3047 89.4312 18.0812 89.6547ZM16.225 88.2625C16.1047 88.4859 16.2766 88.7609 16.6203 88.9328C16.8953 89.1047 17.2391 89.0531 17.3594 88.8125C17.4797 88.5891 17.3078 88.3141 16.9641 88.1422C16.6203 88.0391 16.3453 88.0906 16.225 88.2625ZM21.7938 94.3812C21.5188 94.6047 21.6219 95.1203 22.0172 95.4469C22.4125 95.8422 22.9109 95.8938 23.1344 95.6188C23.3578 95.3953 23.2547 94.8797 22.9109 94.5531C22.5328 94.1578 22.0172 94.1062 21.7938 94.3812ZM19.8344 91.8547C19.5594 92.0266 19.5594 92.4734 19.8344 92.8688C20.1094 93.2641 20.5734 93.4359 20.7969 93.2641C21.0719 93.0406 21.0719 92.5938 20.7969 92.1984C20.5563 91.8031 20.1094 91.6313 19.8344 91.8547Z" fill="#FFFEFE"/>
<path d="M14.9263 12.528C15.1343 12.528 15.3023 12.6 15.4303 12.744C15.5743 12.872 15.6463 13.04 15.6463 13.248V19.032C15.6463 19.304 15.5263 19.52 15.2863 19.68C14.5663 20.176 13.7663 20.56 12.8863 20.832C12.0063 21.104 11.1103 21.24 10.1983 21.24C8.56625 21.24 7.09425 20.864 5.78225 20.112C4.47025 19.36 3.43825 18.328 2.68625 17.016C1.93425 15.704 1.55825 14.232 1.55825 12.6C1.55825 10.968 1.93425 9.496 2.68625 8.184C3.43825 6.872 4.47025 5.84 5.78225 5.088C7.09425 4.336 8.56625 3.96 10.1983 3.96C11.0463 3.96 11.8623 4.064 12.6463 4.272C13.4463 4.48 14.1583 4.776 14.7823 5.16C15.0063 5.304 15.1183 5.504 15.1183 5.76C15.1183 5.968 15.0463 6.144 14.9023 6.288C14.7743 6.432 14.6223 6.504 14.4463 6.504C14.2863 6.504 14.1423 6.464 14.0143 6.384C12.8143 5.728 11.5423 5.4 10.1983 5.4C8.83825 5.4 7.61425 5.712 6.52625 6.336C5.45425 6.96 4.61425 7.824 4.00625 8.928C3.39825 10.016 3.09425 11.24 3.09425 12.6C3.09425 13.96 3.39825 15.192 4.00625 16.296C4.61425 17.384 5.45425 18.24 6.52625 18.864C7.61425 19.488 8.83825 19.8 10.1983 19.8C10.8863 19.8 11.5743 19.704 12.2623 19.512C12.9663 19.32 13.5903 19.056 14.1343 18.72V13.968H10.3423C10.1343 13.968 9.95825 13.904 9.81425 13.776C9.67025 13.632 9.59825 13.456 9.59825 13.248C9.59825 13.04 9.67025 12.872 9.81425 12.744C9.95825 12.6 10.1343 12.528 10.3423 12.528H14.9263ZM20.8618 20.256C20.8458 20.464 20.7658 20.64 20.6217 20.784C20.4778 20.928 20.3018 21 20.0938 21C19.8698 21 19.6858 20.936 19.5418 20.808C19.4138 20.664 19.3498 20.48 19.3498 20.256V4.944C19.3498 4.72 19.4218 4.544 19.5658 4.416C19.7098 4.272 19.8938 4.2 20.1178 4.2C20.3258 4.2 20.5018 4.272 20.6458 4.416C20.7898 4.56 20.8618 4.736 20.8618 4.944V20.256ZM36.0538 4.2C36.2618 4.2 36.4298 4.264 36.5578 4.392C36.7018 4.52 36.7738 4.688 36.7738 4.896C36.7738 5.104 36.7018 5.272 36.5578 5.4C36.4298 5.512 36.2618 5.568 36.0538 5.568H31.0858V20.28C31.0858 20.488 31.0138 20.664 30.8698 20.808C30.7258 20.936 30.5498 21 30.3418 21C30.1178 21 29.9338 20.936 29.7898 20.808C29.6618 20.664 29.5978 20.488 29.5978 20.28V5.568H24.6298C24.4218 5.568 24.2458 5.504 24.1018 5.376C23.9738 5.248 23.9098 5.08 23.9098 4.872C23.9098 4.68 23.9738 4.52 24.1018 4.392C24.2458 4.264 24.4218 4.2 24.6298 4.2H36.0538ZM51.8581 4.2C52.0821 4.2 52.2581 4.272 52.3861 4.416C52.5301 4.544 52.6021 4.72 52.6021 4.944V20.256C52.5861 20.48 52.5061 20.664 52.3621 20.808C52.2181 20.936 52.0421 21 51.8341 21C51.6261 21 51.4501 20.928 51.3061 20.784C51.1621 20.64 51.0901 20.464 51.0901 20.256V13.104H41.3461V20.256C41.3301 20.464 41.2501 20.64 41.1061 20.784C40.9621 20.928 40.7861 21 40.5781 21C40.3541 21 40.1701 20.936 40.0261 20.808C39.8981 20.664 39.8341 20.48 39.8341 20.256V4.944C39.8341 4.72 39.9061 4.544 40.0501 4.416C40.1941 4.272 40.3781 4.2 40.6021 4.2C40.8101 4.2 40.9861 4.272 41.1301 4.416C41.2741 4.56 41.3461 4.736 41.3461 4.944V11.712H51.0901V4.944C51.0901 4.736 51.1621 4.56 51.3061 4.416C51.4661 4.272 51.6501 4.2 51.8581 4.2ZM68.9876 4.2C69.1956 4.2 69.3636 4.272 69.4916 4.416C69.6356 4.544 69.7076 4.712 69.7076 4.92V14.856C69.7076 16.024 69.4276 17.096 68.8676 18.072C68.3076 19.048 67.5476 19.816 66.5876 20.376C65.6276 20.936 64.5716 21.216 63.4196 21.216C62.2516 21.216 61.1876 20.936 60.2276 20.376C59.2676 19.816 58.5076 19.048 57.9476 18.072C57.3876 17.096 57.1076 16.024 57.1076 14.856V4.92C57.1076 4.712 57.1716 4.544 57.2996 4.416C57.4436 4.272 57.6356 4.2 57.8756 4.2C58.0676 4.2 58.2356 4.272 58.3796 4.416C58.5236 4.544 58.5956 4.712 58.5956 4.92V14.856C58.5956 15.752 58.8116 16.576 59.2436 17.328C59.6756 18.08 60.2596 18.68 60.9956 19.128C61.7476 19.56 62.5556 19.776 63.4196 19.776C64.2996 19.776 65.1076 19.56 65.8436 19.128C66.5956 18.68 67.1876 18.08 67.6196 17.328C68.0676 16.576 68.2916 15.752 68.2916 14.856V4.92C68.2916 4.712 68.3556 4.544 68.4836 4.416C68.6116 4.272 68.7796 4.2 68.9876 4.2ZM83.1929 12.072C84.1529 12.312 84.9369 12.792 85.5449 13.512C86.1529 14.232 86.4569 15.168 86.4569 16.32C86.4569 17.888 85.9689 19.064 84.9929 19.848C84.0329 20.616 82.8329 21 81.3929 21H74.9369C74.7289 21 74.5529 20.936 74.4089 20.808C74.2809 20.664 74.2169 20.488 74.2169 20.28V4.92C74.2169 4.712 74.2809 4.544 74.4089 4.416C74.5529 4.272 74.7289 4.2 74.9369 4.2H81.2969C82.6409 4.2 83.6889 4.568 84.4409 5.304C85.2089 6.04 85.5929 7.048 85.5929 8.328C85.5929 9.176 85.3849 9.936 84.9689 10.608C84.5529 11.28 83.9609 11.768 83.1929 12.072ZM84.0569 8.448C84.0569 7.568 83.7929 6.88 83.2649 6.384C82.7529 5.872 82.0329 5.616 81.1049 5.616H75.7529V11.616H81.1049C81.9689 11.6 82.6729 11.32 83.2169 10.776C83.7769 10.232 84.0569 9.456 84.0569 8.448ZM81.3209 19.584C82.3929 19.584 83.2569 19.312 83.9129 18.768C84.5849 18.224 84.9209 17.408 84.9209 16.32C84.9209 15.2 84.5769 14.376 83.8889 13.848C83.2169 13.32 82.3449 13.056 81.2729 13.056H75.7529V19.584H81.3209Z" fill="#FFFEFE"/>
</svg>
