<svg width="100" height="143" viewBox="0 0 100 143" fill="none" xmlns="http://www.w3.org/2000/svg">
<path d="M0 25.1036L9.08854 129.043L49.8698 142.751L90.9115 129.043L100 25.1036H0ZM80.2604 58.6908H32.3958L33.4635 71.6635H79.1927L75.651 110.634L50.1563 117.724V117.803H49.8698L24.1667 110.634L22.6042 90.7286H35.026L35.9375 100.734L49.8698 104.542L63.8542 100.734L65.4167 84.3998H21.9531L18.6198 46.1645H81.4063L80.2604 58.6908Z" fill="#FFFEFE"/>
<path d="M34.7927 0.0055362C35.0124 0.0055362 35.1849 0.0761245 35.3104 0.217301C35.4516 0.342791 35.5222 0.515341 35.5222 0.734948V15.7467C35.5065 15.9663 35.428 16.1467 35.2869 16.2879C35.1457 16.4134 34.9731 16.4761 34.7692 16.4761C34.5653 16.4761 34.3927 16.4055 34.2516 16.2644C34.1104 16.1232 34.0398 15.9506 34.0398 15.7467V8.73495H24.4869V15.7467C24.4712 15.9506 24.3927 16.1232 24.2516 16.2644C24.1104 16.4055 23.9378 16.4761 23.7339 16.4761C23.5143 16.4761 23.3339 16.4134 23.1927 16.2879C23.0673 16.1467 23.0045 15.9663 23.0045 15.7467V0.734948C23.0045 0.515341 23.0751 0.342791 23.2163 0.217301C23.3575 0.0761245 23.5378 0.0055362 23.7575 0.0055362C23.9614 0.0055362 24.1339 0.0761245 24.2751 0.217301C24.4163 0.358478 24.4869 0.531027 24.4869 0.734948V7.37024H34.0398V0.734948C34.0398 0.531027 34.1104 0.358478 34.2516 0.217301C34.4084 0.0761245 34.5888 0.0055362 34.7927 0.0055362Z" fill="#FFFEFE"/>
<path d="M50.4334 0.0055362C50.6373 0.0055362 50.802 0.0682814 50.9275 0.193772C51.0687 0.319262 51.1393 0.483968 51.1393 0.68789C51.1393 0.891811 51.0687 1.05652 50.9275 1.18201C50.802 1.29181 50.6373 1.34671 50.4334 1.34671H45.5628V15.7702C45.5628 15.9742 45.4922 16.1467 45.351 16.2879C45.2098 16.4134 45.0373 16.4761 44.8334 16.4761C44.6138 16.4761 44.4334 16.4134 44.2922 16.2879C44.1667 16.1467 44.104 15.9742 44.104 15.7702V1.34671H39.2334C39.0294 1.34671 38.8569 1.28397 38.7157 1.15848C38.5902 1.03299 38.5275 0.868281 38.5275 0.66436C38.5275 0.476125 38.5902 0.319262 38.7157 0.193772C38.8569 0.0682814 39.0294 0.0055362 39.2334 0.0055362H50.4334Z" fill="#FFFEFE"/>
<path d="M68.4926 0.0055362C68.6808 0.0055362 68.8377 0.0761245 68.9632 0.217301C69.1043 0.342791 69.1749 0.507498 69.1749 0.711419V15.7702C69.1749 15.9742 69.1043 16.1467 68.9632 16.2879C68.822 16.4134 68.6494 16.4761 68.4455 16.4761C68.2259 16.4761 68.0455 16.4134 67.9043 16.2879C67.7632 16.1467 67.6926 15.9742 67.6926 15.7702V2.82907L62.1631 11.2055C62.0063 11.4095 61.8259 11.5036 61.622 11.4879H61.5749C61.3867 11.4879 61.2141 11.3938 61.0573 11.2055L55.5279 2.78201V15.7702C55.5279 15.9742 55.4573 16.1467 55.3161 16.2879C55.1906 16.4134 55.0259 16.4761 54.822 16.4761C54.6181 16.4761 54.4533 16.4134 54.3279 16.2879C54.2024 16.1467 54.1396 15.9742 54.1396 15.7702V0.711419C54.1396 0.523184 54.2024 0.358478 54.3279 0.217301C54.469 0.0761245 54.6416 0.0055362 54.8455 0.0055362C54.9553 0.0055362 55.073 0.0369088 55.1984 0.099654C55.3239 0.146713 55.4181 0.217301 55.4808 0.311419L61.6455 9.55848L67.8573 0.311419C68.0298 0.0761249 68.2416 -0.0258359 68.4926 0.0055362Z" fill="#FFFEFE"/>
<path d="M82.7078 15.0879C82.9117 15.0879 83.0764 15.1506 83.2019 15.2761C83.3431 15.4016 83.4137 15.5663 83.4137 15.7702C83.4137 15.9742 83.3431 16.1467 83.2019 16.2879C83.0764 16.4134 82.9117 16.4761 82.7078 16.4761H74.3078C74.1039 16.4761 73.9313 16.4134 73.7902 16.2879C73.6647 16.1467 73.6019 15.9742 73.6019 15.7702V0.711419C73.6019 0.507498 73.6725 0.342791 73.8137 0.217301C73.9549 0.0761245 74.1353 0.0055362 74.3549 0.0055362C74.5588 0.0055362 74.7313 0.0761245 74.8725 0.217301C75.0137 0.342791 75.0843 0.507498 75.0843 0.711419V15.0879H82.7078Z" fill="#FFFEFE"/>
</svg>
