<svg width="60" height="60" viewBox="0 0 60 60" fill="none" xmlns="http://www.w3.org/2000/svg">
<circle cx="30" cy="30" r="28.5" fill="#0A0E01" stroke="white" stroke-width="3"/>
<path d="M30.0059 23.2617C26.2793 23.2617 23.2734 26.2676 23.2734 29.9941C23.2734 33.7207 26.2793 36.7266 30.0059 36.7266C33.7324 36.7266 36.7383 33.7207 36.7383 29.9941C36.7383 26.2676 33.7324 23.2617 30.0059 23.2617ZM30.0059 34.3711C27.5977 34.3711 25.6289 32.4082 25.6289 29.9941C25.6289 27.5801 27.5918 25.6172 30.0059 25.6172C32.4199 25.6172 34.3828 27.5801 34.3828 29.9941C34.3828 32.4082 32.4141 34.3711 30.0059 34.3711V34.3711ZM38.584 22.9863C38.584 23.8594 37.8809 24.5566 37.0137 24.5566C36.1406 24.5566 35.4434 23.8535 35.4434 22.9863C35.4434 22.1191 36.1465 21.416 37.0137 21.416C37.8809 21.416 38.584 22.1191 38.584 22.9863ZM43.043 24.5801C42.9434 22.4766 42.4629 20.6133 40.9219 19.0781C39.3867 17.543 37.5234 17.0625 35.4199 16.957C33.252 16.834 26.7539 16.834 24.5859 16.957C22.4883 17.0566 20.625 17.5371 19.084 19.0723C17.543 20.6074 17.0684 22.4707 16.9629 24.5742C16.8398 26.7422 16.8398 33.2402 16.9629 35.4082C17.0625 37.5117 17.543 39.375 19.084 40.9102C20.625 42.4453 22.4824 42.9258 24.5859 43.0312C26.7539 43.1543 33.252 43.1543 35.4199 43.0312C37.5234 42.9316 39.3867 42.4512 40.9219 40.9102C42.457 39.375 42.9375 37.5117 43.043 35.4082C43.166 33.2402 43.166 26.748 43.043 24.5801V24.5801ZM40.2422 37.7344C39.7852 38.8828 38.9004 39.7676 37.7461 40.2305C36.0176 40.916 31.916 40.7578 30.0059 40.7578C28.0957 40.7578 23.9883 40.9102 22.2656 40.2305C21.1172 39.7734 20.2324 38.8887 19.7695 37.7344C19.084 36.0059 19.2422 31.9043 19.2422 29.9941C19.2422 28.084 19.0898 23.9766 19.7695 22.2539C20.2266 21.1055 21.1113 20.2207 22.2656 19.7578C23.9941 19.0723 28.0957 19.2305 30.0059 19.2305C31.916 19.2305 36.0234 19.0781 37.7461 19.7578C38.8945 20.2148 39.7793 21.0996 40.2422 22.2539C40.9277 23.9824 40.7695 28.084 40.7695 29.9941C40.7695 31.9043 40.9277 36.0117 40.2422 37.7344Z" fill="white"/>
</svg>
