<svg width="168" height="78" viewBox="0 0 168 78" fill="none" xmlns="http://www.w3.org/2000/svg">
<g clip-path="url(#clip0)">
<path fill-rule="evenodd" clip-rule="evenodd" d="M0.164185 9.99023L15.8986 3.08783V7.06703L5.20418 11.759L15.8986 16.4462V20.4278L0.164185 13.5254V9.99023ZM30.865 4.04543H35.2858V21.035H30.865V14.4758H22.6738V21.035H18.253V4.04543H22.6738V10.6046H30.865V4.04543ZM46.5346 17.1518H50.9074V21.0518H37.7362V17.1638H42.109V10.6838C40.9931 11.4112 39.6848 11.7874 38.353 11.7638H37.849V7.62623H38.353C40.1626 7.62623 42.109 6.66623 42.109 4.55423V4.05023H46.5298L46.5346 17.1518ZM88.4338 15.6998C88.4338 19.0598 85.1938 21.3038 80.3722 21.3038C75.397 21.3038 70.7866 18.8222 70.7866 18.8222L72.6274 15.1358C72.6274 15.1358 76.9474 17.219 80.0674 17.219C82.7074 17.219 84.2242 16.8878 84.2242 15.779C84.2242 14.9486 83.845 14.2814 79.3114 14.2814C73.3114 14.2814 72.049 12.2342 72.049 9.90383C72.049 6.06383 75.169 3.78623 80.3698 3.78623C85.045 3.78623 87.6514 5.55983 87.6514 5.55983L86.1226 9.29183C86.1226 9.29183 83.1514 7.85183 80.0938 7.85183C77.473 7.85183 76.2922 8.57183 76.2922 9.29183C76.2922 9.96143 76.6882 10.4918 81.0922 10.4918C85.5562 10.4918 88.4338 12.2078 88.4338 15.6998ZM89.2714 4.04543H105.267V7.91663H99.481V21.035H95.0578V7.91663H89.2714V4.04543ZM70.5826 42.8102C68.701 45.2798 65.6962 46.6502 62.1226 46.6502C56.1682 46.6502 51.8482 43.2566 51.8482 37.8878C51.8482 32.519 56.1682 29.1422 62.1226 29.1422C65.6938 29.1422 68.6962 30.5006 70.5754 32.9654L67.1026 35.2118C66.2314 33.8294 64.5562 33.131 62.1226 33.131C58.2514 33.131 56.3626 34.331 56.3626 37.8734C56.3626 41.4158 58.2442 42.635 62.1226 42.635C64.561 42.635 66.2386 41.9342 67.1074 40.547L70.5826 42.8102ZM120.107 42.4886H124.479V46.3742H111.313V42.4886H115.688V36.0086C114.572 36.7348 113.264 37.1109 111.932 37.0886H111.416V32.9606H111.923C113.73 32.9606 115.679 32.0006 115.679 29.891V29.3846H120.097L120.107 42.4886ZM139.225 29.3822H143.394V46.3718H139.422L130.561 35.831V46.3718H126.392V29.3822H130.364L139.225 39.923V29.3822ZM156.121 37.1318H165.932V46.3766H161.511V45.1238C159.732 46.1471 157.708 46.6688 155.655 46.6334C149.703 46.6334 145.383 43.2494 145.383 37.883C145.383 32.5166 149.703 29.1302 155.655 29.1302C162.167 29.1302 165.111 32.3054 165.111 32.3054L161.991 34.9022C161.991 34.9022 160.179 33.131 155.667 33.131C151.799 33.131 149.907 34.331 149.907 37.8806C149.907 41.4302 151.789 42.6326 155.667 42.6326C157.827 42.6326 159.356 42.095 160.29 40.9934H156.121V37.1318ZM40.2442 66.3686C40.2442 69.7286 37.0066 71.975 32.1826 71.975C27.2074 71.975 22.5994 69.491 22.5994 69.491L24.4378 65.8046C24.4378 65.8046 28.7578 67.8902 31.8778 67.8902C34.5178 67.8902 36.0322 67.5566 36.0322 66.4502C36.0322 65.6174 35.653 64.9502 31.1194 64.9502C25.1194 64.9502 23.8594 62.9054 23.8594 60.575C23.8594 56.735 26.9794 54.455 32.1778 54.455C36.853 54.455 39.4618 56.2286 39.4618 56.2286L37.9306 59.9534C37.9306 59.9534 34.9594 58.5134 31.9018 58.5134C29.281 58.5134 28.1002 59.2334 28.1002 59.9534C28.1002 60.6206 28.4938 61.1534 32.9002 61.1534C37.3666 61.1726 40.2442 62.8766 40.2442 66.3686ZM60.2434 68.1446C58.3642 70.6142 55.3594 71.9846 51.7834 71.9846C45.829 71.9846 41.509 68.5886 41.509 63.2198C41.509 57.851 45.829 54.4742 51.7834 54.4742C55.3546 54.4742 58.357 55.8326 60.2386 58.2974L56.7634 60.5582C55.8946 59.1758 54.2194 58.4774 51.7834 58.4774C47.9122 58.4774 46.0234 59.6774 46.0234 63.2198C46.0234 66.7622 47.9074 67.9814 51.7834 67.9814C54.2218 67.9814 55.8994 67.2806 56.7682 65.8934L60.2434 68.1446ZM74.6122 54.7142H79.033V71.7038H74.6122V65.1446H66.421V71.7038H62.0002V54.7142H66.421V61.2758H74.6122V54.7142ZM69.8794 10.1606C69.8794 13.1582 68.2714 16.6598 63.745 16.6598H57.241V21.035H52.8202V4.04543H63.4162C68.5258 4.04543 69.8794 8.04623 69.8794 10.1606ZM57.2386 7.91663V12.7886H63.7426C65.6986 12.7886 65.7202 10.6286 65.7202 10.5446C65.7202 9.75503 65.497 7.90463 63.4066 7.90463L57.2386 7.91663ZM115.208 4.04543L121.419 21.035H116.936L115.94 18.3038H108.74L107.739 21.035H103.256L109.472 4.04543H115.208ZM112.34 8.46863L110.159 14.435H114.522L112.34 8.46863ZM90.0562 37.8902C90.0562 43.6046 86.5066 46.643 80.7922 46.643C75.0778 46.643 71.5282 43.6022 71.5282 37.8902C71.5282 32.1782 75.0802 29.135 80.7922 29.135C86.5042 29.135 90.0562 32.1758 90.0562 37.8902ZM80.7922 33.1358C76.7842 33.1358 76.0522 34.4006 76.0522 37.8902C76.0522 41.3798 76.7722 42.6422 80.7922 42.6422C84.8122 42.6422 85.5322 41.3798 85.5322 37.8902C85.5322 34.4006 84.7882 33.1358 80.7802 33.1358H80.7922ZM109.482 37.8638C109.482 43.583 106.659 46.3718 101.735 46.3718H92.4034V29.3822H101.723C106.647 29.3822 109.47 32.1446 109.47 37.8638H109.482ZM101.735 33.2534H96.8242V42.5006H101.723C103.367 42.5006 104.843 42.6014 104.843 37.8638C104.843 33.1262 103.367 33.2534 101.723 33.2534H101.735ZM101.576 63.2198C101.576 68.5886 97.2562 71.975 91.2994 71.975C85.3426 71.975 81.0274 68.5886 81.0274 63.2198C81.0274 57.851 85.3474 54.4646 91.2994 54.4646C97.2514 54.4646 101.576 57.8534 101.576 63.2198ZM91.3042 58.4678C87.4354 58.4678 85.5442 59.6798 85.5442 63.2198C85.5442 66.7598 87.4258 67.9718 91.3042 67.9718C95.1826 67.9718 97.0642 66.7718 97.0642 63.2198C97.0642 59.6678 95.1754 58.4678 91.3042 58.4678ZM123.349 63.2198C123.349 68.5886 119.029 71.975 113.072 71.975C107.115 71.975 102.8 68.5886 102.8 63.2198C102.8 57.851 107.12 54.4646 113.072 54.4646C119.024 54.4646 123.349 57.8534 123.349 63.2198ZM113.072 58.4678C109.203 58.4678 107.312 59.6798 107.312 63.2198C107.312 66.7598 109.194 67.9718 113.072 67.9718C116.951 67.9718 118.832 66.7718 118.832 63.2198C118.832 59.6678 116.936 58.4678 113.072 58.4678ZM129.747 67.835H139.379V71.7062H125.327V54.7166H129.747V67.835ZM150.899 49.1918L143.826 78.1334H139.379L146.451 49.1918H150.899ZM152.202 53.759L167.936 60.659V64.1942L152.202 71.0966V67.1174L162.894 62.4278L152.202 57.7382V53.759ZM0.164185 53.6534H20.6314V78.1334H0.164185V53.6534ZM125.689 0.0542297H167.951V26.639H125.689V0.0542297ZM0.164185 24.0878H48.3106V50.6726H0.164185V24.0878Z" fill="#FFF9FA"/>
</g>
<defs>
<clipPath id="clip0">
<rect width="168" height="78" fill="white"/>
</clipPath>
</defs>
</svg>
