<svg width="60" height="60" viewBox="0 0 60 60" fill="none" xmlns="http://www.w3.org/2000/svg">
<path d="M30 0C13.4325 0 0 13.4325 0 30C0 46.5675 13.43 60 30 60C46.5675 60 60 46.5675 60 30C60 13.43 46.5675 0 30 0ZM29.97 3.14C44.825 3.1225 56.8575 15.1525 56.8575 29.9925C56.8575 44.8325 44.825 56.865 29.9875 56.8625C15.1475 56.8625 3.115 44.8325 3.115 29.9925C3.115 15.175 15.1125 3.155 29.97 3.14V3.14ZM29.17 14.5575C26.2085 14.5557 23.3659 15.7227 21.26 17.805C20.2171 18.817 19.3882 20.0283 18.8226 21.367C18.257 22.7056 17.9662 24.1443 17.9675 25.5975V28.045L16.5775 30.5525V34.1625C16.5802 35.7765 16.9056 37.3736 17.5345 38.8599C18.1635 40.3463 19.0834 41.6919 20.24 42.8175C22.5955 45.1288 25.765 46.4217 29.065 46.4175H31.305C34.595 46.4175 37.755 45.125 40.105 42.8175C41.2634 41.693 42.1848 40.3477 42.8147 38.8612C43.4446 37.3747 43.7703 35.777 43.7725 34.1625V30.55L42.3975 28.0425V25.5925C42.3958 24.1394 42.1029 22.7014 41.5361 21.3634C40.9693 20.0255 40.1401 18.8146 39.0975 17.8025C36.9904 15.719 34.1458 14.5518 31.1825 14.555L29.17 14.5575ZM29.17 19.4825H31.1825C32.822 19.4877 34.3936 20.1379 35.5575 21.2925C36.72 22.4225 37.3775 23.975 37.3825 25.5975L37.39 28.1225H22.965V25.5975C22.97 23.975 23.6275 22.4225 24.79 21.2925C25.9546 20.137 27.527 19.486 29.1675 19.48L29.17 19.4825ZM30.33 32.4725H30.405C34.24 32.415 35.28 37.7325 31.7025 39.1225H31.4875V42.0125C31.4887 42.2246 31.4361 42.4335 31.3347 42.6197C31.2332 42.8059 31.0863 42.9634 30.9075 43.0775H29.63C29.4475 42.9609 29.2971 42.8006 29.1923 42.6111C29.0875 42.4217 29.0317 42.209 29.03 41.9925V39.125C25.455 37.735 26.4925 32.4175 30.33 32.475V32.4725Z" fill="#FDFAFA"/>
</svg>
