<svg width="29" height="19" viewBox="0 0 29 19" fill="none" xmlns="http://www.w3.org/2000/svg">
<path d="M0 12.5628C0 10.6248 0.483333 8.6867 1.45 6.74863C2.48571 4.74135 3.7631 3.11475 5.28214 1.86885C6.80119 0.622951 8.28571 0 9.73571 0C10.4952 0 11.1167 0.20765 11.6 0.622949C12.1524 0.969036 12.4286 1.52277 12.4286 2.28415C12.4286 2.97632 12.256 3.46084 11.9107 3.73771C11.5655 4.01457 11.0131 4.25683 10.2536 4.46448C9.56309 4.67213 9.04524 4.87978 8.7 5.08743C7.73333 5.57195 6.97381 6.29872 6.42143 7.26776C5.9381 8.16758 5.69643 9.17122 5.69643 10.2787C5.69643 11.0401 5.90357 11.663 6.31786 12.1475C6.73214 12.6321 7.28452 12.8743 7.975 12.8743C8.94167 12.8743 9.87381 12.5628 10.7714 11.9399C11.6 12.6321 12.0143 13.4627 12.0143 14.4317C12.0143 15.6084 11.3929 16.6812 10.15 17.6503C8.90714 18.5501 7.56071 19 6.11071 19C4.31548 19 2.83095 18.4463 1.65714 17.3388C0.552381 16.1621 0 14.5701 0 12.5628ZM16.5714 12.5628C16.5714 10.6248 17.0548 8.6867 18.0214 6.74863C19.0571 4.74135 20.3345 3.11475 21.8536 1.86885C23.3726 0.622951 24.8571 0 26.3071 0C27.0667 0 27.6881 0.20765 28.1714 0.622949C28.7238 0.969036 29 1.52277 29 2.28415C29 2.97632 28.8274 3.46084 28.4821 3.73771C28.1369 4.01457 27.5845 4.25683 26.825 4.46448C26.1345 4.67213 25.6167 4.87978 25.2714 5.08743C24.3048 5.57195 23.5452 6.29872 22.9929 7.26776C22.5095 8.16758 22.2679 9.17122 22.2679 10.2787C22.2679 11.0401 22.475 11.663 22.8893 12.1475C23.3036 12.6321 23.856 12.8743 24.5464 12.8743C25.5131 12.8743 26.4452 12.5628 27.3429 11.9399C28.1714 12.6321 28.5857 13.4627 28.5857 14.4317C28.5857 15.6084 27.9643 16.6812 26.7214 17.6503C25.4786 18.5501 24.1321 19 22.6821 19C20.8869 19 19.4024 18.4463 18.2286 17.3388C17.1238 16.1621 16.5714 14.5701 16.5714 12.5628Z" fill="#FFC551"/>
</svg>
