<svg width="64" height="64" viewBox="0 0 64 64" xmlns="http://www.w3.org/2000/svg">
<path fill-rule="evenodd" clip-rule="evenodd" d="M47.9041 21.368C48.0034 21.3249 48.1021 21.2806 48.2 21.2353C47.5588 22.2361 46.8038 23.1594 45.9572 23.9736C45.6096 24.3079 45.2466 24.6237 44.8696 24.9191C44.8902 25.2279 44.8902 25.5368 44.8902 25.8456C44.8902 35.2647 38.2088 46.1176 25.997 46.1176C23.5116 46.1176 20.8995 45.6775 18.7259 44.7474C18.2746 44.5542 17.8422 44.34 17.4338 44.1041C16.8318 43.7565 16.2818 43.362 15.8001 42.9192C17.0666 42.9174 17.1262 42.918 17.1865 42.9186C17.2169 42.9189 17.2476 42.9192 17.4338 42.9192C17.9691 42.9192 18.4961 42.8883 19.0136 42.8275C20.572 42.6442 22.0432 42.1884 23.3896 41.4819C24.1889 41.0626 24.9441 40.5548 25.6475 39.9633C24.7939 39.9439 23.9807 39.7548 23.2362 39.4263C22.0829 38.9174 21.0944 38.0738 20.3759 37.0085C20.126 36.6381 19.9088 36.2408 19.7287 35.8215C19.6177 35.563 19.5207 35.2962 19.4389 35.0221C19.8501 35.0882 20.2612 35.1323 20.693 35.1323C20.9259 35.1323 21.1587 35.1189 21.3892 35.0932C21.7487 35.0533 22.1022 34.9838 22.4404 34.8897C21.9948 34.7928 21.5656 34.6486 21.1574 34.4621L21.156 34.4615C20.9984 34.3894 20.844 34.3111 20.693 34.2267C20.3276 34.0227 19.9822 33.7835 19.6608 33.5132C19.523 33.3974 19.3896 33.2758 19.2609 33.1489C18.4132 32.3128 17.7694 31.2433 17.4174 30.0332C17.2569 29.4818 17.1571 28.9011 17.1261 28.3001C17.1192 28.1667 17.1158 28.0323 17.1158 27.897V27.8088C17.1659 27.8389 17.2166 27.8683 17.2676 27.897C17.7881 28.19 18.3552 28.4149 18.9529 28.5546C19.3302 28.6428 19.7196 28.6971 20.1173 28.7132C19.2325 28.0803 18.4987 27.2261 17.9829 26.2254C17.9672 26.1949 17.9517 26.1643 17.9364 26.1335C17.4385 25.1329 17.1569 23.9906 17.1569 22.7794C17.1569 22.231 17.2133 21.7016 17.3204 21.1943C17.4718 20.4771 17.7243 19.8039 18.0614 19.1838C18.4649 19.7174 18.8934 20.2282 19.345 20.7143C22.1348 23.7168 25.8056 25.7743 29.8924 26.4373C30.5039 26.5365 31.1247 26.6044 31.7533 26.6397C31.6505 26.1103 31.5888 25.5588 31.5888 25.0074C31.5888 24.9191 31.5903 24.8311 31.5933 24.7436C31.7223 20.9386 34.632 17.8824 38.2292 17.8824C40.1411 17.8824 41.868 18.7426 43.081 20.1324C43.5879 20.028 44.0879 19.891 44.5768 19.7237C45.5352 19.396 46.4514 18.9522 47.2955 18.4118C47.1455 18.9145 46.9444 19.3927 46.6983 19.8397C46.3916 20.3969 46.0151 20.9055 45.5811 21.3524C45.2174 21.727 44.8134 22.0582 44.3762 22.3382C44.6173 22.3104 44.8571 22.2746 45.0952 22.2315C46.0682 22.0552 47.0128 21.7555 47.9041 21.368ZM48.8468 19.4786C48.9071 19.3122 48.9628 19.1433 49.0138 18.9723C49.2371 18.2237 48.9932 17.4088 48.4017 16.9269C47.8102 16.445 46.995 16.397 46.3555 16.8064C45.5125 17.3462 44.5847 17.7741 43.6153 18.0633C42.1552 16.7745 40.2764 16 38.2292 16C33.6674 16 30.0407 19.8199 29.8014 24.5132C25.6666 23.7436 22.0221 21.3874 19.4734 18.0163C19.1021 17.5252 18.5217 17.2593 17.9247 17.3069C17.3278 17.3544 16.7926 17.7092 16.4967 18.2534C15.7712 19.5877 15.3569 21.1205 15.3569 22.7794C15.3569 24.0283 15.5957 25.2219 16.0291 26.3082C15.5831 26.6612 15.3158 27.2152 15.3158 27.8088V27.897C15.3158 30.3816 16.2549 32.6387 17.7872 34.2737C17.618 34.6821 17.5903 35.1464 17.7207 35.583C18.3172 37.5814 19.5559 39.2842 21.1883 40.4078C20.0197 40.8209 18.7607 41.0368 17.4338 41.0368C17.263 41.0368 17.2316 41.0365 17.1998 41.0362C17.1345 41.0356 17.0672 41.035 15.7977 41.0368C15.049 41.0378 14.3791 41.5234 14.1154 42.2562C13.8517 42.989 14.0493 43.816 14.6117 44.3329C17.4682 46.959 22.041 48 25.997 48C39.4494 48 46.6902 36.0262 46.6902 25.8456V25.822C46.6902 25.8171 46.6902 25.8123 46.6902 25.8074C47.8429 24.7857 48.8567 23.5922 49.6954 22.283C50.1413 21.587 50.0937 20.6665 49.5785 20.0249C49.3776 19.7747 49.1244 19.5903 48.8468 19.4786Z" fill="#FFFEFE"/>
<path fill-rule="evenodd" clip-rule="evenodd" d="M32 61C48.0163 61 61 48.0163 61 32C61 15.9837 48.0163 3 32 3C15.9837 3 3 15.9837 3 32C3 48.0163 15.9837 61 32 61ZM32 64C49.6731 64 64 49.6731 64 32C64 14.3269 49.6731 0 32 0C14.3269 0 0 14.3269 0 32C0 49.6731 14.3269 64 32 64Z" fill="#FFFEFE"/>
</svg>
