<svg width="64" height="64" viewBox="0 0 64 64" xmlns="http://www.w3.org/2000/svg">
<path fill-rule="evenodd" clip-rule="evenodd" d="M22.6773 18.992C24.9236 16.7709 27.9557 15.526 31.1147 15.528L33.2613 15.5253C36.4221 15.522 39.4564 16.7669 41.704 18.9893C42.8161 20.069 43.7006 21.3605 44.3051 22.7877C44.9097 24.2149 45.2222 25.7487 45.224 27.2987V29.912L46.6907 32.5867V36.44C46.6883 38.1621 46.341 39.8663 45.6691 41.4519C44.9972 43.0376 44.0143 44.4725 42.7787 45.672C40.272 48.1333 36.9013 49.512 33.392 49.512H31.0027C27.4826 49.5165 24.1018 48.1374 21.5893 45.672C20.3556 44.4713 19.3744 43.036 18.7035 41.4506C18.0326 39.8652 17.6855 38.1616 17.6827 36.44V32.5893L19.1653 29.9147V27.304C19.164 25.7539 19.4741 24.2193 20.0775 22.7914C20.6808 21.3636 21.5649 20.0715 22.6773 18.992ZM33.2613 20.7813H31.1147L31.112 20.7787C29.3621 20.785 27.6849 21.4795 26.4427 22.712C25.2027 23.9173 24.5013 25.5733 24.496 27.304V29.9973H39.8827L39.8747 27.304C39.8693 25.5733 39.168 23.9173 37.928 22.712C36.6865 21.4804 35.0101 20.7868 33.2613 20.7813ZM32.432 34.6373H32.352V34.64C28.2587 34.5787 27.152 40.2507 30.9653 41.7333V44.792C30.9672 45.0229 31.0267 45.2498 31.1385 45.4519C31.2502 45.654 31.4107 45.825 31.6053 45.9493H32.968C33.1587 45.8277 33.3155 45.6597 33.4237 45.461C33.5318 45.2624 33.5879 45.0395 33.5867 44.8133V41.7307H33.816C37.632 40.248 36.5227 34.576 32.432 34.6373Z" fill="#FFFEFE"/>
<path fill-rule="evenodd" clip-rule="evenodd" d="M32 0C14.328 0 0 14.328 0 32C0 49.672 14.3253 64 32 64C49.672 64 64 49.672 64 32C64 14.3253 49.672 0 32 0ZM60.648 31.992C60.648 16.1627 47.8133 3.33067 31.968 3.34933C16.12 3.36533 3.32267 16.1867 3.32267 31.992C3.32267 47.8213 16.1573 60.6533 31.9867 60.6533C47.8133 60.656 60.648 47.8213 60.648 31.992Z" fill="#FFFEFE"/>
<path fill-rule="evenodd" clip-rule="evenodd" d="M32 61C48.0163 61 61 48.0163 61 32C61 15.9837 48.0163 3 32 3C15.9837 3 3 15.9837 3 32C3 48.0163 15.9837 61 32 61ZM32 64C49.6731 64 64 49.6731 64 32C64 14.3269 49.6731 0 32 0C14.3269 0 0 14.3269 0 32C0 49.6731 14.3269 64 32 64Z" fill="#FFFEFE"/>
</svg>
