<svg width="64" height="64" viewBox="0 0 64 64" xmlns="http://www.w3.org/2000/svg">
<path d="M46.9279 22.4684C43.0869 22.4684 39.962 19.5649 39.962 15.9961C39.962 15.4459 39.4818 15 38.89 15H33.1483C32.5561 15 32.0762 15.4459 32.0762 15.9961V37.8681C32.0762 39.9662 30.2392 41.673 27.9809 41.673C25.7228 41.673 23.8858 39.9662 23.8858 37.8681C23.8858 35.7699 25.7228 34.063 27.9809 34.063C28.573 34.063 29.0529 33.6171 29.0529 33.0669V27.7321C29.0529 27.1822 28.573 26.736 27.9809 26.736C21.3746 26.736 16 31.73 16 37.8681C16 44.0063 21.3746 49 27.9809 49C34.5872 49 39.962 44.0063 39.962 37.8681V28.1866C42.0958 29.2436 44.47 29.7954 46.9279 29.7954C47.5201 29.7954 48 29.3495 48 28.7993V23.4645C48 22.9145 47.5201 22.4684 46.9279 22.4684ZM45.8559 27.7619C43.5671 27.585 41.3937 26.8421 39.5159 25.5871C39.1895 25.3687 38.759 25.3386 38.4008 25.5093C38.0429 25.6795 37.8179 26.0219 37.8179 26.3957V37.8681C37.8179 42.9077 33.4049 47.0078 27.9809 47.0078C22.5569 47.0078 18.1441 42.9077 18.1441 37.8681C18.1441 33.165 21.9874 29.2799 26.9088 28.7822V32.1564C23.9774 32.6301 21.7417 35.0108 21.7417 37.8681C21.7417 41.0647 24.5405 43.6655 27.9809 43.6655C31.4215 43.6655 34.2203 41.0647 34.2203 37.8681V16.9922H37.8804C38.3715 20.865 41.6877 23.9462 45.8559 24.4025V27.7619Z" fill="#FFFEFE"/>
<path fill-rule="evenodd" clip-rule="evenodd" d="M32 61C48.0163 61 61 48.0163 61 32C61 15.9837 48.0163 3 32 3C15.9837 3 3 15.9837 3 32C3 48.0163 15.9837 61 32 61ZM32 64C49.6731 64 64 49.6731 64 32C64 14.3269 49.6731 0 32 0C14.3269 0 0 14.3269 0 32C0 49.6731 14.3269 64 32 64Z" fill="#FFFEFE"/>
</svg>
