<svg width="64" height="64" viewBox="0 0 64 64" xmlns="http://www.w3.org/2000/svg">
<path d="M32.0036 23.7956C27.4632 23.7956 23.801 27.4587 23.801 32C23.801 36.5413 27.4632 40.2044 32.0036 40.2044C36.5439 40.2044 40.2061 36.5413 40.2061 32C40.2061 27.4587 36.5439 23.7956 32.0036 23.7956ZM32.0036 37.3339C29.0695 37.3339 26.6708 34.9419 26.6708 32C26.6708 29.0581 29.0624 26.6661 32.0036 26.6661C34.9448 26.6661 37.3363 29.0581 37.3363 32C37.3363 34.9419 34.9376 37.3339 32.0036 37.3339ZM42.4549 23.46C42.4549 24.5239 41.5982 25.3736 40.5417 25.3736C39.478 25.3736 38.6284 24.5168 38.6284 23.46C38.6284 22.4032 39.4851 21.5464 40.5417 21.5464C41.5982 21.5464 42.4549 22.4032 42.4549 23.46ZM47.8876 25.4022C47.7662 22.8388 47.1808 20.5681 45.3033 18.6973C43.4329 16.8265 41.1627 16.241 38.5999 16.1125C35.9585 15.9625 28.0415 15.9625 25.4001 16.1125C22.8444 16.2339 20.5742 16.8194 18.6967 18.6902C16.8192 20.561 16.2409 22.8316 16.1124 25.3951C15.9625 28.037 15.9625 35.9558 16.1124 38.5978C16.2338 41.1612 16.8192 43.4319 18.6967 45.3027C20.5742 47.1735 22.8373 47.759 25.4001 47.8875C28.0415 48.0375 35.9585 48.0375 38.5999 47.8875C41.1627 47.7661 43.4329 47.1806 45.3033 45.3027C47.1737 43.4319 47.7591 41.1612 47.8876 38.5978C48.0375 35.9558 48.0375 28.0442 47.8876 25.4022ZM44.4752 41.4326C43.9183 42.8321 42.8404 43.9103 41.434 44.4744C39.3281 45.3098 34.3308 45.117 32.0036 45.117C29.6763 45.117 24.6719 45.3027 22.5731 44.4744C21.1739 43.9174 20.0959 42.8392 19.532 41.4326C18.6967 39.3261 18.8895 34.3278 18.8895 32C18.8895 29.6722 18.7038 24.6667 19.532 22.5674C20.0888 21.1679 21.1668 20.0897 22.5731 19.5256C24.6791 18.6902 29.6763 18.883 32.0036 18.883C34.3308 18.883 39.3352 18.6973 41.434 19.5256C42.8332 20.0826 43.9112 21.1608 44.4752 22.5674C45.3104 24.6739 45.1177 29.6722 45.1177 32C45.1177 34.3278 45.3104 39.3333 44.4752 41.4326Z" fill="#FFFEFE"/>
<path fill-rule="evenodd" clip-rule="evenodd" d="M32 61C48.0163 61 61 48.0163 61 32C61 15.9837 48.0163 3 32 3C15.9837 3 3 15.9837 3 32C3 48.0163 15.9837 61 32 61ZM32 64C49.6731 64 64 49.6731 64 32C64 14.3269 49.6731 0 32 0C14.3269 0 0 14.3269 0 32C0 49.6731 14.3269 64 32 64Z" fill="#FFFEFE"/>
</svg>
