<svg width="60" height="60" viewBox="0 0 60 60" fill="none" xmlns="http://www.w3.org/2000/svg">
<circle cx="30" cy="30" r="28.5" stroke="white" stroke-width="3"/>
<path d="M42.2456 23.0529C39.0947 23.0529 36.5314 20.6511 36.5314 17.699C36.5314 17.2439 36.1374 16.875 35.6519 16.875H30.9419C30.4562 16.875 30.0625 17.2439 30.0625 17.699V35.7917C30.0625 37.5272 28.5556 38.9391 26.7031 38.9391C24.8508 38.9391 23.3438 37.5272 23.3438 35.7917C23.3438 34.0559 24.8508 32.644 26.7031 32.644C27.1888 32.644 27.5825 32.2752 27.5825 31.8201V27.4071C27.5825 26.9522 27.1888 26.5831 26.7031 26.5831C21.2838 26.5831 16.875 30.7141 16.875 35.7917C16.875 40.8692 21.2838 45 26.7031 45C32.1223 45 36.5314 40.8692 36.5314 35.7917V27.783C38.2817 28.6574 40.2293 29.1138 42.2456 29.1138C42.7313 29.1138 43.125 28.745 43.125 28.2898V23.8769C43.125 23.422 42.7313 23.0529 42.2456 23.0529ZM41.3661 27.4317C39.4887 27.2854 37.7058 26.6709 36.1654 25.6327C35.8977 25.4521 35.5445 25.4272 35.2507 25.5684C34.9571 25.7091 34.7725 25.9924 34.7725 26.3016V35.7917C34.7725 39.9605 31.1524 43.3521 26.7031 43.3521C22.2537 43.3521 18.6339 39.9605 18.6339 35.7917C18.6339 31.9012 21.7865 28.6874 25.8236 28.2757V31.0669C23.4189 31.4587 21.585 33.4281 21.585 35.7917C21.585 38.4359 23.8809 40.5872 26.7031 40.5872C29.5255 40.5872 31.8214 38.4359 31.8214 35.7917V18.5229H34.8238C35.2266 21.7266 37.9469 24.2753 41.3661 24.6528V27.4317Z" fill="white"/>
</svg>
