<svg width="60" height="60" viewBox="0 0 60 60" fill="none" xmlns="http://www.w3.org/2000/svg">
<circle cx="30" cy="30" r="28.5" stroke="white" stroke-width="3"/>
<path fill-rule="evenodd" clip-rule="evenodd" d="M44.137 21.3615C44.2253 21.3264 44.3129 21.2905 44.4 21.2537C43.8301 22.0669 43.159 22.817 42.4064 23.4785C42.0974 23.7501 41.7747 24.0068 41.4397 24.2468C41.4579 24.4977 41.458 24.7486 41.458 24.9995C41.458 32.6525 35.5189 41.4706 24.664 41.4706C22.4548 41.4706 20.1329 41.113 18.2008 40.3572C17.7997 40.2003 17.4153 40.0262 17.0523 39.8346C16.5171 39.5522 16.0282 39.2316 15.6001 38.8718C16.7259 38.8704 16.7788 38.8708 16.8324 38.8713C16.8595 38.8716 16.8867 38.8718 17.0523 38.8718C17.5281 38.8718 17.9966 38.8468 18.4565 38.7973C19.8417 38.6484 21.1495 38.2781 22.3463 37.7041C23.0568 37.3633 23.7281 36.9508 24.3534 36.4702C23.5946 36.4544 22.8718 36.3008 22.21 36.0339C21.1848 35.6204 20.3061 34.935 19.6674 34.0694C19.4454 33.7684 19.2523 33.4457 19.0922 33.105C18.9935 32.895 18.9073 32.6782 18.8346 32.4554C19.2001 32.5092 19.5655 32.545 19.9493 32.545C20.1563 32.545 20.3633 32.5341 20.5681 32.5133C20.8877 32.4808 21.202 32.4243 21.5026 32.3479C21.1065 32.2691 20.725 32.152 20.3621 32.0004C20.3617 32.0003 20.3613 32.0001 20.3609 31.9999C20.2208 31.9414 20.0836 31.8778 19.9493 31.8092C19.6245 31.6434 19.3175 31.4491 19.0318 31.2295C18.9093 31.1353 18.7908 31.0366 18.6764 30.9335C17.9228 30.2541 17.3506 29.3852 17.0377 28.402C16.8951 27.9539 16.8063 27.4822 16.7788 26.9938C16.7727 26.8854 16.7696 26.7763 16.7696 26.6664V26.5947C16.8142 26.6191 16.8592 26.643 16.9046 26.6664C17.3672 26.9044 17.8713 27.0871 18.4026 27.2006C18.7379 27.2723 19.0841 27.3164 19.4376 27.3295C18.6511 26.8152 17.9988 26.1212 17.5404 25.3081C17.5264 25.2833 17.5126 25.2585 17.499 25.2335C17.0565 24.4205 16.8061 23.4924 16.8061 22.5082C16.8061 22.0627 16.8563 21.6326 16.9515 21.2204C17.086 20.6376 17.3105 20.0907 17.6102 19.5868C17.9688 20.0204 18.3497 20.4355 18.7511 20.8304C21.231 23.2699 24.4938 24.9416 28.1266 25.4803C28.6701 25.5609 29.222 25.6161 29.7807 25.6447C29.6894 25.2146 29.6345 24.7666 29.6345 24.3185C29.6345 24.2467 29.6359 24.1753 29.6385 24.1042C29.7532 21.0126 32.3396 18.5294 35.5371 18.5294C37.2366 18.5294 38.7716 19.2284 39.8498 20.3575C40.3004 20.2728 40.7448 20.1614 41.1794 20.0255C42.0313 19.7592 42.8457 19.3987 43.596 18.9596C43.4627 19.368 43.2839 19.7566 43.0651 20.1197C42.7925 20.5725 42.4578 20.9857 42.0721 21.3489C41.7488 21.6532 41.3897 21.9223 41.001 22.1498C41.2154 22.1272 41.4286 22.0981 41.6402 22.0631C42.5051 21.9198 43.3447 21.6763 44.137 21.3615ZM44.9749 19.8264C45.0285 19.6911 45.078 19.554 45.1234 19.415C45.3218 18.8068 45.1051 18.1447 44.5793 17.7531C44.0535 17.3615 43.3289 17.3225 42.7605 17.6552C42.0111 18.0938 41.1864 18.4414 40.3247 18.6765C39.0269 17.6293 37.3568 17 35.5371 17C31.4821 17 28.2584 20.1036 28.0457 23.917C24.3704 23.2917 21.1308 21.3773 18.8653 18.6383C18.5352 18.2393 18.0193 18.0232 17.4887 18.0618C16.9581 18.1005 16.4823 18.3887 16.2193 18.8309C15.5744 19.915 15.2061 21.1604 15.2061 22.5082C15.2061 23.523 15.4184 24.4928 15.8036 25.3754C15.4072 25.6622 15.1696 26.1123 15.1696 26.5947V26.6664C15.1696 28.685 16.0044 30.519 17.3664 31.8474C17.216 32.1792 17.1914 32.5565 17.3073 32.9112C17.8375 34.5349 18.9386 35.9184 20.3896 36.8313C19.3508 37.167 18.2317 37.3424 17.0523 37.3424C16.9005 37.3424 16.8726 37.3422 16.8442 37.3419C16.7862 37.3415 16.7264 37.341 15.5979 37.3424C14.9324 37.3433 14.337 37.7378 14.1026 38.3332C13.8682 38.9286 14.0439 39.6005 14.5437 40.0205C17.0829 42.1542 21.1476 43 24.664 43C36.6217 43 43.058 33.2713 43.058 24.9995V24.9804C43.058 24.9764 43.058 24.9725 43.058 24.9685C44.0826 24.1384 44.9837 23.1687 45.7292 22.105C46.1256 21.5394 46.0833 20.7916 45.6253 20.2702C45.4467 20.0669 45.2217 19.9171 44.9749 19.8264Z" fill="#FFFEFE"/>
</svg>
