<svg width="121" height="122" viewBox="0 0 121 122" fill="none" xmlns="http://www.w3.org/2000/svg">
<g clip-path="url(#clip0)">
<mask id="mask0" style="mask-type:alpha" maskUnits="userSpaceOnUse" x="17" y="34" width="88" height="88">
<path fill-rule="evenodd" clip-rule="evenodd" d="M79.4023 121.399C80.7883 121.939 82.3689 121.904 83.7679 121.231L101.886 112.513C103.789 111.597 105 109.67 105 107.557V48.4436C105 46.3298 103.789 44.4031 101.886 43.487L83.7679 34.7688C81.932 33.8854 79.7832 34.1017 78.172 35.2732C77.9417 35.4405 77.7224 35.6274 77.5168 35.8333L42.8325 67.4764L27.7247 56.0084C26.3183 54.9408 24.3512 55.0283 23.045 56.2164L18.1995 60.6242C16.6018 62.0776 16.5999 64.5911 18.1955 66.0468L31.2975 77.9999L18.1955 89.9531C16.5999 91.4089 16.6018 93.9224 18.1995 95.3758L23.045 99.7833C24.3512 100.972 26.3183 101.059 27.7247 99.9916L42.8325 88.5234L77.5168 120.167C78.0655 120.716 78.7097 121.129 79.4023 121.399ZM83.0134 58.023L56.6959 77.9999L83.0134 97.9769V58.023Z" fill="white"/>
</mask>
<g mask="url(#mask0)">
<path d="M101.886 43.5013L83.7538 34.7711C81.6552 33.7606 79.1469 34.1868 77.4996 35.8339L18.1425 89.9538C16.546 91.4096 16.5478 93.9231 18.1465 95.3765L22.995 99.7841C24.302 100.972 26.2703 101.06 27.6775 99.9924L99.1573 45.7661C101.555 43.9469 105 45.6573 105 48.6673V48.4568C105 46.3439 103.789 44.4179 101.886 43.5013Z" fill="#A2A2A2"/>
<g filter="url(#filter0_d)">
<path d="M101.886 112.499L83.7538 121.23C81.6552 122.24 79.1469 121.814 77.4996 120.167L18.1425 66.0469C16.546 64.5912 16.5478 62.0776 18.1465 60.6242L22.995 56.2165C24.302 55.0283 26.2703 54.9409 27.6775 56.0084L99.1573 110.234C101.555 112.054 105 110.343 105 107.333V107.544C105 109.657 103.789 111.583 101.886 112.499Z" fill="#EBEBEB"/>
</g>
<g filter="url(#filter1_d)">
<path d="M83.7549 121.231C81.6556 122.241 79.1472 121.814 77.5 120.167C79.5295 122.196 83 120.759 83 117.888V38.1114C83 35.2411 79.5295 33.8037 77.5 35.8333C79.1472 34.186 81.6556 33.7592 83.7549 34.7688L101.884 43.487C103.789 44.4031 105 46.3298 105 48.4436V107.557C105 109.67 103.789 111.597 101.884 112.513L83.7549 121.231Z" fill="#FFFEFE"/>
</g>
<g style="mix-blend-mode:overlay" opacity="0.25">
<path style="mix-blend-mode:overlay" opacity="0.25" fill-rule="evenodd" clip-rule="evenodd" d="M79.3487 121.399C80.7347 121.939 82.3152 121.905 83.714 121.232L101.832 112.513C103.736 111.597 104.946 109.671 104.946 107.557V48.4438C104.946 46.33 103.736 44.4033 101.832 43.4872L83.714 34.769C81.8783 33.8856 79.7296 34.102 78.1181 35.2734C77.8881 35.4408 77.6688 35.6276 77.4629 35.8335L42.7787 67.4766L27.671 56.0086C26.2646 54.9411 24.2975 55.0285 22.9913 56.2167L18.1458 60.6244C16.548 62.0778 16.5462 64.5914 18.1418 66.0471L31.2438 78.0002L18.1418 89.9534C16.5462 91.4092 16.548 93.9227 18.1458 95.3761L22.9913 99.7836C24.2975 100.972 26.2646 101.059 27.671 99.9919L42.7787 88.5237L77.4629 120.167C78.0115 120.716 78.656 121.129 79.3487 121.399ZM82.9598 58.0232L56.6423 78.0002L82.9598 97.9772V58.0232Z" fill="url(#paint0_linear)"/>
</g>
</g>
</g>
<path d="M24.5445 7.176C24.7525 7.176 24.9285 7.248 25.0725 7.392C25.2165 7.52 25.2885 7.672 25.2885 7.848C25.2885 7.96 25.2645 8.08 25.2165 8.208L18.8085 23.52C18.7445 23.664 18.6485 23.784 18.5205 23.88C18.3925 23.96 18.2565 24 18.1125 24C17.9685 24 17.8325 23.96 17.7045 23.88C17.5925 23.8 17.5045 23.688 17.4405 23.544L11.0565 8.256C11.0085 8.16 10.9845 8.032 10.9845 7.872C10.9845 7.664 11.0565 7.496 11.2005 7.368C11.3445 7.24 11.5045 7.176 11.6805 7.176C12.0165 7.176 12.2565 7.352 12.4005 7.704L18.1845 21.528L23.8725 7.656C23.9525 7.512 24.0485 7.4 24.1605 7.32C24.2885 7.224 24.4165 7.176 24.5445 7.176ZM32.6631 24.24C31.5111 24.24 30.4871 24.048 29.5911 23.664C28.7111 23.28 27.8551 22.68 27.0231 21.864C26.8311 21.704 26.7351 21.512 26.7351 21.288C26.7351 21.096 26.8071 20.92 26.9511 20.76C27.1111 20.6 27.2871 20.52 27.4791 20.52C27.6711 20.52 27.8471 20.6 28.0071 20.76C29.2551 22.136 30.8151 22.824 32.6871 22.824C33.8391 22.824 34.7911 22.552 35.5431 22.008C36.3111 21.464 36.6951 20.752 36.6951 19.872C36.6951 19.184 36.5031 18.616 36.1191 18.168C35.7511 17.704 35.2631 17.328 34.6551 17.04C34.0471 16.752 33.2711 16.456 32.3271 16.152C31.3031 15.848 30.4391 15.512 29.7351 15.144C29.0471 14.776 28.4871 14.288 28.0551 13.68C27.6231 13.056 27.4071 12.272 27.4071 11.328C27.4071 10.48 27.6311 9.728 28.0791 9.072C28.5431 8.416 29.1831 7.904 29.9991 7.536C30.8311 7.152 31.7831 6.96 32.8551 6.96C33.8311 6.96 34.7431 7.128 35.5911 7.464C36.4551 7.784 37.1431 8.248 37.6551 8.856C37.8951 9.128 38.0151 9.36 38.0151 9.552C38.0151 9.728 37.9351 9.896 37.7751 10.056C37.6151 10.2 37.4391 10.272 37.2471 10.272C37.0871 10.272 36.9511 10.216 36.8391 10.104C36.4071 9.592 35.8311 9.176 35.1111 8.856C34.3911 8.536 33.6391 8.376 32.8551 8.376C31.6871 8.376 30.7351 8.64 29.9991 9.168C29.2631 9.68 28.8951 10.384 28.8951 11.28C28.8951 12.208 29.2471 12.92 29.9511 13.416C30.6551 13.912 31.6631 14.368 32.9751 14.784C34.1111 15.12 35.0391 15.464 35.7591 15.816C36.4791 16.168 37.0631 16.672 37.5111 17.328C37.9751 17.968 38.2071 18.816 38.2071 19.872C38.2071 20.688 37.9671 21.432 37.4871 22.104C37.0231 22.76 36.3671 23.28 35.5191 23.664C34.6871 24.048 33.7351 24.24 32.6631 24.24ZM60.4302 8.448C60.6702 8.592 60.7902 8.792 60.7902 9.048C60.7902 9.192 60.7342 9.352 60.6222 9.528C60.4782 9.704 60.2942 9.792 60.0702 9.792C59.9422 9.792 59.8142 9.752 59.6862 9.672C58.4062 8.824 57.0062 8.4 55.4862 8.4C54.1902 8.4 53.0142 8.704 51.9582 9.312C50.9182 9.92 50.0942 10.776 49.4862 11.88C48.8942 12.968 48.5982 14.208 48.5982 15.6C48.5982 17.024 48.9022 18.288 49.5102 19.392C50.1182 20.48 50.9422 21.328 51.9822 21.936C53.0382 22.528 54.2062 22.824 55.4862 22.824C57.0062 22.824 58.3982 22.408 59.6622 21.576C59.7902 21.496 59.9262 21.456 60.0702 21.456C60.2942 21.456 60.4782 21.552 60.6222 21.744C60.7342 21.872 60.7902 22.024 60.7902 22.2C60.7902 22.456 60.6782 22.648 60.4542 22.776C59.8302 23.192 59.0622 23.544 58.1502 23.832C57.2382 24.104 56.3502 24.24 55.4862 24.24C53.9662 24.24 52.5582 23.88 51.2622 23.16C49.9822 22.424 48.9582 21.4 48.1902 20.088C47.4382 18.776 47.0622 17.28 47.0622 15.6C47.0622 13.984 47.4382 12.52 48.1902 11.208C48.9422 9.88 49.9582 8.848 51.2382 8.112C52.5182 7.36 53.9342 6.984 55.4862 6.984C56.3822 6.984 57.2542 7.112 58.1022 7.368C58.9662 7.624 59.7422 7.984 60.4302 8.448ZM78.8218 15.6C78.8218 17.248 78.4778 18.728 77.7898 20.04C77.1018 21.352 76.1498 22.384 74.9338 23.136C73.7178 23.872 72.3338 24.24 70.7818 24.24C69.2298 24.24 67.8458 23.872 66.6298 23.136C65.4138 22.384 64.4618 21.352 63.7738 20.04C63.0858 18.728 62.7418 17.248 62.7418 15.6C62.7418 13.936 63.0858 12.448 63.7738 11.136C64.4618 9.824 65.4138 8.8 66.6298 8.064C67.8458 7.328 69.2298 6.96 70.7818 6.96C72.3338 6.96 73.7178 7.328 74.9338 8.064C76.1498 8.8 77.1018 9.824 77.7898 11.136C78.4778 12.448 78.8218 13.936 78.8218 15.6ZM77.2858 15.6C77.2858 14.208 77.0058 12.968 76.4458 11.88C75.9018 10.776 75.1338 9.92 74.1418 9.312C73.1658 8.704 72.0458 8.4 70.7818 8.4C69.5178 8.4 68.3898 8.704 67.3978 9.312C66.4218 9.92 65.6538 10.776 65.0938 11.88C64.5498 12.968 64.2778 14.208 64.2778 15.6C64.2778 16.992 64.5498 18.24 65.0938 19.344C65.6538 20.432 66.4218 21.28 67.3978 21.888C68.3898 22.496 69.5178 22.8 70.7818 22.8C72.0458 22.8 73.1658 22.496 74.1418 21.888C75.1338 21.28 75.9018 20.432 76.4458 19.344C77.0058 18.24 77.2858 16.992 77.2858 15.6ZM89.0608 7.2C90.5968 7.2 91.8848 7.584 92.9248 8.352C93.9808 9.104 94.7648 10.12 95.2768 11.4C95.8048 12.664 96.0688 14.064 96.0688 15.6C96.0688 17.184 95.8048 18.608 95.2768 19.872C94.7648 21.136 93.9808 22.144 92.9248 22.896C91.8848 23.632 90.5968 24 89.0608 24H82.9408C82.7328 24 82.5568 23.936 82.4128 23.808C82.2848 23.664 82.2208 23.488 82.2208 23.28V7.92C82.2208 7.712 82.2848 7.544 82.4128 7.416C82.5568 7.272 82.7328 7.2 82.9408 7.2H89.0608ZM88.8208 22.584C90.7408 22.584 92.1728 21.944 93.1168 20.664C94.0608 19.368 94.5328 17.68 94.5328 15.6C94.5328 14.304 94.3328 13.136 93.9328 12.096C93.5328 11.04 92.9008 10.2 92.0368 9.576C91.1888 8.936 90.1168 8.616 88.8208 8.616H83.7328V22.584H88.8208ZM108.999 22.584C109.207 22.584 109.375 22.656 109.503 22.8C109.647 22.944 109.719 23.112 109.719 23.304C109.719 23.512 109.647 23.68 109.503 23.808C109.375 23.936 109.207 24 108.999 24H100.191C99.9828 24 99.8068 23.936 99.6628 23.808C99.5348 23.664 99.4708 23.488 99.4708 23.28V7.92C99.4708 7.712 99.5348 7.544 99.6628 7.416C99.8068 7.272 99.9828 7.2 100.191 7.2H108.999C109.207 7.2 109.375 7.272 109.503 7.416C109.647 7.544 109.719 7.712 109.719 7.92C109.719 8.128 109.647 8.296 109.503 8.424C109.375 8.552 109.207 8.616 108.999 8.616H100.983V14.64H107.919C108.127 14.64 108.295 14.712 108.423 14.856C108.567 14.984 108.639 15.152 108.639 15.36C108.639 15.568 108.567 15.736 108.423 15.864C108.295 15.992 108.127 16.056 107.919 16.056H100.983V22.584H108.999Z" fill="#FFFEFE"/>
<defs>
<filter id="filter0_d" x="-4.38711" y="33.9295" width="130.72" height="109.176" filterUnits="userSpaceOnUse" color-interpolation-filters="sRGB">
<feFlood flood-opacity="0" result="BackgroundImageFix"/>
<feColorMatrix in="SourceAlpha" type="matrix" values="0 0 0 0 0 0 0 0 0 0 0 0 0 0 0 0 0 0 127 0" result="hardAlpha"/>
<feOffset/>
<feGaussianBlur stdDeviation="10.6667"/>
<feColorMatrix type="matrix" values="0 0 0 0 0 0 0 0 0 0 0 0 0 0 0 0 0 0 0.25 0"/>
<feBlend mode="overlay" in2="BackgroundImageFix" result="effect1_dropShadow"/>
<feBlend mode="normal" in="SourceGraphic" in2="effect1_dropShadow" result="shape"/>
</filter>
<filter id="filter1_d" x="56.1666" y="12.8934" width="70.1668" height="130.213" filterUnits="userSpaceOnUse" color-interpolation-filters="sRGB">
<feFlood flood-opacity="0" result="BackgroundImageFix"/>
<feColorMatrix in="SourceAlpha" type="matrix" values="0 0 0 0 0 0 0 0 0 0 0 0 0 0 0 0 0 0 127 0" result="hardAlpha"/>
<feOffset/>
<feGaussianBlur stdDeviation="10.6667"/>
<feColorMatrix type="matrix" values="0 0 0 0 0 0 0 0 0 0 0 0 0 0 0 0 0 0 0.25 0"/>
<feBlend mode="overlay" in2="BackgroundImageFix" result="effect1_dropShadow"/>
<feBlend mode="normal" in="SourceGraphic" in2="effect1_dropShadow" result="shape"/>
</filter>
<linearGradient id="paint0_linear" x1="60.9464" y1="34.2271" x2="60.9464" y2="121.773" gradientUnits="userSpaceOnUse">
<stop stop-color="white"/>
<stop offset="1" stop-color="white" stop-opacity="0"/>
</linearGradient>
<clipPath id="clip0">
<rect width="88" height="88" fill="white" transform="translate(17 34)"/>
</clipPath>
</defs>
</svg>
